<svg xmlns="http://www.w3.org/2000/svg" viewBox="0 0 775.66 805.38"><defs><radialGradient id="radial-gradient" cx="430.34" cy="354.62" r=".81" gradientUnits="userSpaceOnUse"><stop offset="0" stop-color="#eeb944"/><stop offset=".84" stop-color="#eeb944"/></radialGradient><radialGradient id="radial-gradient-2" cx="387.79" cy="711.01" r="281.39" gradientTransform="matrix(1.07 0 0 1 -29.08 0)" gradientUnits="userSpaceOnUse"><stop offset=".22" stop-color="#e6a440"/><stop offset=".84" stop-color="#eeb944"/></radialGradient><linearGradient id="linear-gradient" x1="281.48" x2="281.48" y1="647.74" y2="185.81" gradientUnits="userSpaceOnUse"><stop offset=".09" stop-color="#ecf4f5"/><stop offset=".84" stop-color="#fff"/></linearGradient><clipPath id="clip-path"><path fill="none" d="M-597.45 253.24v326.11a12.94 12.94 0 0012.94 12.94h378.14a12.94 12.94 0 0012.94-12.94V253.24z"/></clipPath><style>.cls-6{fill:#c3d9ac}.cls-7{fill:#fff}.cls-9{fill:#e2899b}.cls-13{fill:#f4ecf8}.cls-14{fill:#40274c}.cls-15{fill:#2f1c3a}.cls-16{fill:#efe3f6}.cls-17{fill:#492d59}.cls-22{fill:#5bebff}.cls-24{fill:#b17252}.cls-26{fill:#d26442}.cls-27{fill:#291639}.cls-28{fill:#e38a9c}.cls-29{fill:#f38da5}</style></defs><g style="isolation:isolate"><path id="Layer_2" fill="url(#radial-gradient)" d="M430.34 355.44a.82.82 0 000-1.64.82.82 0 000 1.64z" data-name="Layer 2"/><g id="Layer_1" data-name="Layer 1"><g clip-path="url(#clip-path)" opacity=".68"><path d="M306.63 833.79l24.69-47.18s11.18 4.5 12.84-2.21a22.41 22.41 0 00-1.09-12.95l15.46-37.37L467.5 770l-57.06 104.84zM254.8 505.69l21.94-52.57 47.24 17.49-24.2 51.89-44.98-16.81z" class="cls-6"/><path d="M-436.9 1129.93l60.18 15.64 30.09 7.82 7.53 1.95.35.1.6-.06 1.93-.18 3.87-.36 15.48-1.44 123.87-11.53 123.82-11.53c20.67-2 41.31-3.83 62-5.34l7.8-.5c1.3-.08 2.62-.13 3.94-.19l3.86-.1c5.05-.26 10.23-.74 15.36-1.21l15.44-1.53 12.53-1.33-1-6.4-1.4-9.3c-.91-6.21-1.78-12.43-2.56-18.67s-1.51-12.47-1.79-18.94l-.07-2.39v-1l-.12-1a26.1 26.1 0 00-1.07-4 51.22 51.22 0 00-3.82-8 116.6 116.6 0 00-10.58-14.94c-3.9-4.77-8.06-9.35-12.4-13.75q-3.26-3.3-6.65-6.46c-1.13-1.06-2.27-2-3.43-3.24L5 1010.32l-.86-.87-.8-.89L.21 1005c-1.06-1.19-2-2.42-3-3.63-2-2.42-4-4.88-5.95-7.35-15.6-19.79-30.26-40.12-44.82-60.5l-21.75-30.58a33 33 0 00-6.23-5.89c-2.4-1.83-4.93-3.57-7.51-5.25-5.18-3.35-10.54-6.5-16-9.55-10.85-6.11-21.95-11.81-33.08-17.6-2.79-1.44-5.58-3-8.32-4.52l-8.19-4.64-16.3-9.36q-32.53-18.79-64.85-38c-10.76-6.42-21.51-12.85-32.18-19.46-2.66-1.68-5.33-3.32-8-5l-4-2.61c-1.32-.89-2.68-1.91-4-2.86l-14.6-11.82-58-46.93-60.38-20.32-60.94-20.19q-30.51-10-61.07-19.81c-20.38-6.52-40.78-13-61.26-19.1-10.23-3.16-20.47-6-30.78-9.06-5.15-1.52-10.32-3-15.41-4.7s-10.25-3.22-15.31-5c-20.36-6.78-40.51-14.11-60.56-21.67q-60.16-22.7-119.33-47.8l2.19-5.13q59.07 24.95 119.1 47.72c20 7.54 40.1 14.85 60.36 21.6 5 1.75 10.15 3.31 15.23 5s10.18 3.15 15.29 4.67c10.2 3 20.61 5.91 30.83 9.06 20.52 6.17 40.95 12.61 61.35 19.14s40.76 13.15 61.1 19.82l61 20.2 61.35 20.64L-295 762l14.59 11.81c1.22.86 2.37 1.73 3.63 2.59l3.88 2.54c2.6 1.69 5.27 3.32 7.9 5 10.61 6.57 21.35 13 32.09 19.4q32.27 19.18 64.79 37.94l16.27 9.34 8.15 4.62c2.72 1.52 5.41 3 8.18 4.44 11.08 5.77 22.27 11.51 33.23 17.68 5.49 3.09 10.93 6.28 16.27 9.74 2.66 1.73 5.29 3.54 7.87 5.51a37.7 37.7 0 017.33 7L-49 930.28c14.53 20.34 29.16 40.72 44.58 60.26 1.93 2.45 3.87 4.88 5.86 7.24 1 1.19 2 2.41 3 3.56l3.06 3.45.76.86.79.79 1.58 1.58c1 1.05 2.25 2.12 3.4 3.2q3.48 3.24 6.82 6.63c4.44 4.51 8.71 9.21 12.74 14.13a123.3 123.3 0 0111.1 15.68 57.25 57.25 0 014.24 8.93 30.91 30.91 0 011.32 5l.17 1.34c0 .45.05.92.07 1.38l.07 2.3c.25 6 1 12.28 1.75 18.44s1.63 12.37 2.54 18.55l1.4 9.26 1.93 12.14-18.39 2-15.5 1.53c-5.19.47-10.33 1-15.63 1.23l-3.92.1c-1.26 0-2.53.1-3.82.18l-7.71.5c-20.63 1.5-41.28 3.33-61.88 5.32l-123.84 11.53-123.84 11.61-15.48 1.44-3.87.36-1.94.18-1.33.12h-.24l-.23-.06-.47-.12-.6-.15-7.52-2-30.09-7.82-60.19-15.64zM779.37 543.58a157.88 157.88 0 00-9.16 15.51 92.55 92.55 0 00-6.79 16.44c-.23.7-.38 1.4-.54 2.1s-.35 1.41-.47 2.11a40.44 40.44 0 00-.51 4.28c-.13 1.47-.21 3-.27 4.5s-.15 3-.2 4.55c-.22 6.09-.35 12.21-.49 18.33-.56 24.48-.89 49-2.3 73.56-.36 6.14-.84 12.29-1.54 18.48l-.62 4.65c-.28 1.56-.57 3.23-1 4.74-.76 3.1-1.75 6.06-2.75 9-4.12 11.74-9.08 23-14.12 34.2-10.18 22.37-21.11 44.33-32 66.27l-8.15 16.45c-2.66 5.48-5.42 11-7.78 16.47s-4.4 11.31-6.51 17L678 889.54c-8.29 23.07-16.8 46.11-26.4 68.75-4.78 11.34-10 22.5-15.19 33.58S625.82 1014 620.47 1025q-16.07 33.09-32.58 65.93l-5-2.5q16.49-32.82 32.55-65.86 8-16.51 15.86-33.11c5.21-11.09 10.37-22.14 15.1-33.38 9.54-22.48 18-45.42 26.28-68.47l6.24-17.29c2.12-5.77 4.2-11.53 6.61-17.3s5.22-11.22 7.91-16.75l8.16-16.48c10.9-21.94 21.81-43.86 31.92-66.09 5-11.12 9.94-22.32 13.93-33.72 1-2.84 1.92-5.7 2.61-8.55.4-1.44.63-2.8.89-4.25l.6-4.45c.68-6 1.15-12.06 1.51-18.14 1.39-24.36 1.73-48.86 2.29-73.36.14-6.13.27-12.25.5-18.41 0-1.53.12-3.08.19-4.62s.15-3.09.28-4.68.35-3.2.59-4.83c.14-.81.35-1.58.53-2.38s.35-1.58.6-2.34a97.34 97.34 0 017.2-17.47 163.8 163.8 0 019.52-16.12z" class="cls-7"/><path d="M929.94 359.07l-36.78 44.52-9.16 11.13c-1.5 1.83-3.13 3.76-4.81 5.56s-3.41 3.58-5.21 5.27a114 114 0 01-11.39 9.45c-1 .73-2 1.44-3 2.13l-1.56 1-.79.51a11.29 11.29 0 01-1.09.61l-6.56 3-104.97 48.24-207.43 95.27 10.61 25.47-213.63 407.18 22.21 249.21-5.55.5-22.36-250.85L541.65 611l-11.67-28 212.31-97.51 104.94-48.2 6.56-3 1.2-.75 1.45-1c1-.65 1.93-1.32 2.87-2a109.6 109.6 0 0010.82-9c1.7-1.6 3.36-3.27 4.94-5s3.07-3.47 4.62-5.36l9.19-11.18 36.77-44.51zM-94.76 280.9c9.15 8.73 18.3 17.51 27.14 26.48 2.2 2.24 4.4 4.51 6.41 6.79l1.46 1.71 1.75 1.95c.59.67 1.2 1.17 1.8 1.77s1.19 1.16 1.81 1.68c4.89 4.29 10 8.15 15.11 11.94s10.34 7.44 15.58 11l7.89 5.36 4 2.65 6.41 4.2 5.9-10L4.84 339q4.34-7.51 8.61-15.07c5.67-10.1 11.25-20.24 16.48-30.63 2.62-5.19 5.13-10.45 7.37-15.95.52-1.4 1.1-2.81 1.55-4.22s.91-2.82 1.29-4.24q1.22-4.25 2.19-8.54.84-3.77 1.56-7.53h-5.67c-.42 2.1-.85 4.2-1.32 6.29-.63 2.77-1.34 5.52-2.11 8.24-.37 1.37-.83 2.7-1.24 4s-1 2.6-1.43 3.91C30 280.5 27.54 285.68 25 290.8c-5.16 10.25-10.72 20.35-16.36 30.39-2.82 5-5.69 10-8.57 15l-7.26 12.42-5.52-3.61-7.83-5.32c-5.2-3.58-10.36-7.21-15.44-10.94s-10.08-7.55-14.71-11.62c-.6-.49-1.11-1-1.67-1.55s-1.14-1-1.59-1.56l-1.43-1.58-1.63-1.9c-2.18-2.48-4.39-4.76-6.62-7-8.95-9.08-18.11-17.85-27.28-26.62q-12.7-12.09-25.53-24h-4.07l-1.9 2q13.89 12.88 27.65 25.99z" class="cls-7"/><path d="M994 1102.07l-35.59-13.58 22.76-55.4 15.42-54.78L654.77 847.8l-343.93-132-43-16.51c-3.58-1.35-7.18-2.8-10.74-4.07l-10.84-3.92q-10.83-3.94-21.62-8c-14.39-5.41-28.74-10.91-43-16.92-3.55-1.51-7.09-3.07-10.62-4.73s-6.89-3.37-10.35-5c-6.94-3.17-14-6.24-21-9.27-28.17-12.11-56.55-23.84-84.93-35.5q-21.3-8.75-42.66-17.31c-7.08-2.84-14.19-5.7-21.32-8.45-3.61-1.42-7-2.68-10.73-4s-7.22-2.69-10.82-4.05l-86-33c-28.65-11-57.3-22.07-86.05-32.71-3.59-1.34-7.19-2.6-10.79-3.9s-7.28-2.6-10.87-4c-7.21-2.71-14.37-5.5-21.52-8.32q-21.45-8.44-42.77-17.13-42.71-17.32-85.23-35l2.14-5.14q42.53 17.64 85.18 35 21.33 8.66 42.72 17.11c7.14 2.81 14.28 5.6 21.44 8.29 3.58 1.38 7.16 2.64 10.75 3.94s7.27 2.59 10.87 3.93c28.84 10.67 57.47 21.74 86.13 32.74l86 33c3.59 1.35 7.18 2.73 10.75 4s7.29 2.66 10.83 4.06c7.21 2.76 14.28 5.61 21.42 8.46q21.38 8.6 42.69 17.33c28.41 11.67 56.79 23.4 85 35.55 7.06 3 14.11 6.11 21.13 9.32 3.51 1.61 7.09 3.39 10.41 5s6.9 3.15 10.42 4.64c14.06 5.95 28.38 11.44 42.73 16.84q10.75 4 21.57 8L259 690c3.67 1.3 7.19 2.73 10.79 4.09l43 16.5 344 132.05 346.57 132.31-16.9 60-20.7 50.41 30.24 11.51z" class="cls-7"/><path d="M343.61 778.2L515 845.46l85.7 33.63 42.85 16.82c14.19 5.85 28.31 11.84 42.47 17.75L1025.68 1056l-2.16 5.14-339.58-142.32c-14.15-5.91-28.28-11.9-42.46-17.75l-42.84-16.81L513 850.64l-171.42-67.25z" class="cls-7"/><path d="M340.24 777.69a8.91 8.91 0 10-2.61 6.31 9 9 0 002.61-6.31h5.57a14.48 14.48 0 11-4.24-10.24 14.54 14.54 0 014.24 10.24z" class="cls-7"/><path d="M45.92 375.87h5.57v584.08h-5.57z" class="cls-7" transform="rotate(-69.45 48.71 667.914)"/><path d="M568.91 1080.36l-.38-1.14a5.86 5.86 0 01-.26-1.11 15.38 15.38 0 01-.22-2.06 26.25 26.25 0 01.15-3.8 53 53 0 011.26-7 101.241 101.241 0 012.96-10.04l.32-.9a1.66 1.66 0 01.16-.37l.14-.27.19-.38.78-1.51 12.52-24.1 12.51-24.1 2.5-4.81-.17-.06-1.59-.6-12.71-4.76-101.74-38.17-203.47-76.24-203.45-76.25c-8.41-3.18-16.95-6.21-25.41-9.26l-25.59-9.07-51.25-18-102.61-35.67 1.82-5.26L-22 761.14l51.27 18 25.61 9.07c8.54 3.06 17 6.07 25.59 9.31l203.45 76.25L487.3 950 589 988.09l12.71 4.76 4.61 1.73 1.59.59.79.3.4.15c.11.06.35.07.2.23l-1.57 3-3.76 7.25-12.52 24.1-12.45 24.11-.78 1.51-.2.37-.05.11-.24.7c-.37 1-.71 2.09-1 3.14-.66 2.11-1.26 4.23-1.76 6.35a48.35 48.35 0 00-1.14 6.32 20.34 20.34 0 00-.12 3 8.54 8.54 0 00.13 1.31 1.71 1.71 0 00.13.54c0 .15.09.31.13.47z" class="cls-7"/><path d="M322 782.8c-.17.17-.51.55-.77.84s-.56.65-.83 1c-.56.67-1.11 1.36-1.64 2.07-1.08 1.4-2.12 2.86-3.15 4.33-2.05 3-4 6-5.92 9.06-3.82 6.16-7.4 12.46-10.87 18.87-6.94 12.81-13.57 25.85-20.47 38.78-3.44 6.47-7 12.92-10.6 19.29L257 896.12l-21.47 38.28-42.68 76.66-21.21 38.4-10.48 19.24-2.57 4.82-1.2 2.36c-.4.78-.8 1.55-1.21 2.43a70.19 70.19 0 01-5.65 9.91 48.15 48.15 0 01-7.6 8.76 37.19 37.19 0 01-9.86 6.46l-1.36.59-1.47.43c-1 .27-2 .63-2.89.78-1.83.37-3.67.8-5.49 1.13-3.62.66-7.25 1.32-10.87 1.89-14.49 2.34-29 4.36-43.49 6.34s-29 3.86-43.53 5.7l-10.89 1.36-5.45.68-2.17.26-.68.09c-.22 0-.49.14-.62-.11l-1-1-2.31-2.4-15.19-15.84c-10.11-10.58-20.2-21.17-30.19-31.89-5-5.37-10-10.74-14.73-16.45s-9.31-11.33-13.91-17q-27.54-34.2-54.64-68.7l4.37-3.45q27.17 34.44 54.61 68.65c4.59 5.68 9.18 11.37 13.85 17s9.56 10.87 14.53 16.24c10 10.67 20 21.26 30.13 31.83l15.18 15.83 1.5 1.54.54-.06 5.44-.68 10.88-1.36q21.78-2.84 43.53-5.76c14.47-2 29-4 43.34-6.32 3.6-.57 7.17-1.21 10.73-1.86 1.78-.33 3.51-.73 5.26-1.09.93-.16 1.61-.43 2.41-.64l1.16-.32 1.15-.5c6.15-2.7 11.23-7.57 15.14-13.29a64.08 64.08 0 005.21-9.14c.36-.78.79-1.63 1.22-2.47l1.29-2.53 2.59-4.85 10.51-19.29 21.24-38.42 42.7-76.68 21.44-38.29 10.79-19.12c3.61-6.32 7.09-12.71 10.52-19.15 6.87-12.88 13.5-25.91 20.5-38.82 3.49-6.46 7.14-12.87 11-19.15 2-3.13 4-6.24 6.09-9.3 1.06-1.53 2.15-3 3.29-4.54.57-.75 1.16-1.49 1.77-2.23.3-.37.62-.74.94-1.11s.61-.7 1.09-1.18z" class="cls-7"/><path d="M122.66 1113.52a32.9 32.9 0 0010.87-3 85.79 85.79 0 0010.28-6l1.29-.83c.46-.29.71-.52 1.08-.77a8.46 8.46 0 001-.83 10.37 10.37 0 00.95-.93 32.18 32.18 0 003.5-4.44c2.17-3.25 4.11-6.79 6.07-10.37s3.91-7.22 6-10.81c1-1.79 2.14-3.57 3.22-5.34l3.08-5.2 12.33-21.22 49-85.19L328.9 788l4.84 2.76-97.57 170.63-49 85.21-12.36 21.26-3.2 5.34a209.05 209.05 0 00-3.12 5.18c-2 3.49-4 7.06-5.93 10.66s-4 7.25-6.34 10.82a37.19 37.19 0 01-4.1 5.19 12.92 12.92 0 01-1.24 1.21 12.66 12.66 0 01-1.37 1.13c-.47.34-1 .76-1.42 1l-1.29.83a90.35 90.35 0 01-11 6.34 38.63 38.63 0 01-12.69 3.5zM88.22 803.1a338.72 338.72 0 01-8.65 28.25q-1.25 3.48-2.58 6.94l-2.59 6.8c-1.69 4.54-3.3 9.13-5 13.74s-3.34 9.25-5.4 13.85a52 52 0 01-3.62 6.81c-.7 1.13-1.3 2-1.94 3.06l-1.88 3.08c-2.47 4.15-4.86 8.39-7.23 12.63l-3.53 6.39-3.81 7-72.52 49.22-3.13-4.62 71.39-48.45L41 902l3.55-6.43c2.39-4.27 4.8-8.54 7.32-12.77l1.93-3.18c.62-1 1.4-2.17 2-3.11a47.77 47.77 0 003.2-6.13c1.93-4.31 3.59-8.86 5.23-13.43s3.26-9.2 5-13.8l2.62-6.88c.87-2.25 1.72-4.51 2.53-6.79 3.22-9.09 6.09-18.41 8.49-27.72zM78.88 678.64c-1.63 10.14-3.08 20.36-4.21 30.56-.55 5.1-1 10.21-1.24 15.26-.05 1.26-.07 2.51-.08 3.76s.06 2.44.15 3.69l.32 3.77.42 3.81c1.21 10.15 2.89 20.34 4.61 30.5s3.62 20.32 5.58 30.43L79 801.49q-3-15.27-5.61-30.56c-1.73-10.21-3.41-20.43-4.66-30.8l-.43-3.9-.33-4c-.09-1.32-.11-2.7-.17-4s0-2.67.09-4c.23-5.28.71-10.47 1.27-15.64 1.14-10.35 2.6-20.59 4.25-30.86z" class="cls-7"/><path d="M41.75 1052.49l31.78-124.81 24.18-39.44 23.81-39.16c3.92-6.55 7.91-13.07 11.61-19.68s7.36-13.36 11-20l21.93-40.25 87.45-161.19 43.65-80.63 2.59-4.78 1.78-5.26 3.71-10.86q3.72-10.85 7.54-21.67 1.9-5.41 3.91-10.83c.68-1.8 1.36-3.6 2.13-5.45.17-.44.47-1 .7-1.53l.19-.39c.13-.19.26-.39.4-.58a6.65 6.65 0 01.75-.83 21.94 21.94 0 012.58-2.09 111.15 111.15 0 0110.09-6.08c3.39-1.87 6.82-3.63 10.28-5.34s7-3.35 10.5-4.9c1.78-.77 3.58-1.53 5.43-2.23.93-.35 1.87-.69 2.87-1 .52-.16 1-.3 1.63-.43a6 6 0 012.25-.15l.59.08.4.09.77.17c.52.1 1 .23 1.46.35l2.82.75 5.56 1.57c3.68 1.07 7.35 2.18 11 3.29 14.65 4.46 29.22 9.12 43.76 13.88s29 9.66 43.47 14.78c7.22 2.58 14.41 5.21 21.58 8 3.58 1.41 7.15 2.85 10.71 4.45 1.74.75 3.63 1.76 5.26 2.49s3.31 1.61 5.08 2.29c6.9 2.94 14.11 5.42 21.3 7.85s14.49 4.65 21.78 6.84q21.9 6.54 44.08 12.11c3.69.92 7.4 1.82 11.06 2.61.91.19 1.87.43 2.71.55l1.3.23 1.47.22a54.88 54.88 0 015.91 1.27 56.24 56.24 0 0111.23 4.35 43.69 43.69 0 015.23 3.21 30.84 30.84 0 014.7 4.26 17.36 17.36 0 013.43 5.88 24.66 24.66 0 011 6.43 44.14 44.14 0 01-1.59 12.07c-.25 1-.54 1.93-.87 2.92l-.16.48c-.1.24-.2.42-.23.49l-.31.65-.62 1.29-2.48 5.17-4.95 10.33-79.26 165.37-158.53 330.75-5-2.41 158.5-330.74 79.26-165.38 5-10.33 2.47-5.17.62-1.29.31-.65c.07-.15.09-.17.08-.15l.07-.2c.27-.83.54-1.7.76-2.57a38.46 38.46 0 001.41-10.56 19.85 19.85 0 00-.74-4.86 11.74 11.74 0 00-2.33-3.93 24.92 24.92 0 00-3.79-3.42 36.17 36.17 0 00-4.52-2.77 51.12 51.12 0 00-10.11-3.91 49.43 49.43 0 00-5.29-1.14l-1.36-.2-1.53-.27c-1.05-.16-1.94-.39-2.91-.59-3.8-.82-7.51-1.73-11.24-2.65q-22.32-5.61-44.33-12.18c-7.34-2.2-14.67-4.46-22-6.9s-14.55-4.95-21.72-8c-1.8-.69-3.57-1.61-5.36-2.42s-3.33-1.65-5.1-2.41c-3.4-1.54-6.92-3-10.45-4.34-7.07-2.77-14.23-5.39-21.41-8-14.36-5.1-28.83-10-43.33-14.74s-29.01-9.27-43.6-13.76c-3.64-1.11-7.29-2.21-10.95-3.27l-5.47-1.55-2.71-.72c-.45-.1-.92-.24-1.33-.32l-.63-.14-.3-.06H366c0-.5-.09 1.09-.11-1.14-.06 1.52-.05 1-.09 1.12a1.93 1.93 0 00-.38.07 10 10 0 00-1.14.31c-.82.25-1.68.55-2.54.88-1.72.65-3.45 1.38-5.17 2.13-3.45 1.5-6.87 3.12-10.27 4.79s-6.76 3.41-10.06 5.22a105.73 105.73 0 00-9.54 5.75 16.88 16.88 0 00-1.89 1.49c-.07.09-.26.26-.21.23.6.36-1.18-.73 0 0l-.11.26c-.16.37-.32.64-.49 1.08-.7 1.68-1.37 3.46-2 5.22q-2 5.34-3.88 10.74c-2.55 7.18-5 14.4-7.52 21.62L306.84 519l-1.9 5.6a4.41 4.41 0 01-.29.58l-.17.31-.34.63-.68 1.26-1.37 2.52-43.66 80.64L171 771.76 149.05 812c-3.68 6.71-7.32 13.39-11.08 20.11s-7.75 13.25-11.68 19.81l-23.82 39.19-23.75 38.77-31.57 124z" class="cls-7"/><path d="M534.72 586.89c-5 2.22-10 4.39-15.07 6.45-1.28.52-2.56 1-3.87 1.51-.65.25-1.32.48-2 .71l-1 .34a7.25 7.25 0 01-1.56.28 23.58 23.58 0 01-4.64-.2 77.7 77.7 0 01-4.18-.63c-5.47-1-10.79-2.24-16.1-3.55-2.65-.66-5.29-1.35-7.93-2l-5.51-1.49L455.73 630l241.71 141.29 21.25 21.14 251.67 102.93-2.11 5.16-252.7-103.35L694 775.74 448.74 632.33l20.8-50.79 6.3 1.77 3.92 1.06c2.61.69 5.22 1.37 7.84 2 5.23 1.3 10.5 2.54 15.72 3.47 1.3.23 2.6.44 3.87.59a20 20 0 003.49.18 2.12 2.12 0 00.44-.06l.88-.29c.61-.21 1.22-.42 1.84-.65 1.23-.46 2.48-1 3.72-1.46 5-2 10-4.17 14.88-6.37z" class="cls-7"/><path d="M741.03 475.35h5.57V903.1h-5.57z" class="cls-7" transform="rotate(-68.57 743.87 689.226)"/><path d="M941.44 363.71q-14.88 19.46-30.52 38.29c-5.25 6.25-10.53 12.48-16.06 18.53-1.36 1.53-2.77 3-4.18 4.51s-2.8 3-4.28 4.44a114.7 114.7 0 01-9.18 8.5l-2.52 2c-.87.61-1.77 1.16-2.66 1.74-1.77 1.19-3.56 2.19-5.35 3.22l-2.69 1.5-2.71 1.46c-1.8 1-3.6 2-5.42 2.89q-10.87 5.64-21.88 11c-14.64 7.15-29.36 14.11-44.06 21.08l-22 10.51c-7.3 3.53-14.65 7.08-21.64 10.91A96.89 96.89 0 00727 517.9a43.92 43.92 0 00-7.3 8.81 36.64 36.64 0 00-2.57 5c-.35.88-.69 1.76-1 2.67-.06.2-.18.49-.2.63a2.57 2.57 0 01-.06.4 2.4 2.4 0 00-.05.54v.63a48.2 48.2 0 00.35 5.73c.2 2 .47 3.95.76 5.94.58 4 1.25 8 2 12 1.41 8 2.93 16 4.46 24 3.05 16 6.16 32 8.83 48.07 1.32 8.06 2.55 16.15 3.41 24.33.42 4.1.77 8.22.85 12.42l-.08 6.25-.41 6.23c-1.52 16.6-6.25 32.67-12.74 47.82-1.61 3.8-3.38 7.53-5.21 11.22q-1.38 2.76-2.84 5.48l-2.91 5.37c-3.73 7.08-7.24 14.45-10.74 21.76q-10.43 22-20.18 44.34c-1.62 3.73-3.25 7.44-4.81 11.19s-3.15 7.47-4.67 11.23c-3.07 7.5-6 15.05-8.66 22.65-.63 1.9-1.36 3.8-1.89 5.71l-1.73 5.78c-.62 2-1.17 4-1.84 5.94l-2 5.83q-4.2 11.55-8.81 22.88c-6.11 15.13-12.5 30.11-19 45s-13.22 29.8-19.96 44.63l-5.07-2.31q10.08-22.19 19.82-44.55c6.49-14.91 12.87-29.86 19-44.9q4.57-11.28 8.73-22.67l2-5.71c.66-1.9 1.17-3.81 1.77-5.71l1.77-5.91c.56-2 1.3-3.92 1.94-5.87 2.7-7.78 5.68-15.38 8.77-22.94q2.29-5.68 4.7-11.31c1.57-3.76 3.21-7.49 4.83-11.23q9.77-22.42 20.26-44.51c3.52-7.37 7-14.69 10.86-22l2.91-5.36q1.42-2.65 2.77-5.35c1.78-3.59 3.51-7.22 5.07-10.91 6.31-14.73 10.86-30.28 12.31-46.13l.4-5.94.07-5.95c-.07-3.94-.41-7.93-.82-11.93-.84-8-2-16-3.37-24-2.64-16-5.75-31.95-8.8-47.94-1.53-8-3.06-16-4.48-24-.7-4-1.38-8.06-2-12.13-.3-2-.58-4.08-.79-6.16a53 53 0 01-.38-6.45v-.89a6.38 6.38 0 01.1-1c.07-.37.14-.74.22-1.1s.17-.54.25-.82c.33-1 .71-2.06 1.12-3.07a41.51 41.51 0 013-5.83 49.62 49.62 0 018.21-9.93 102.82 102.82 0 0120.44-14.45c7.29-4 14.6-7.51 21.94-11.07l22-10.53c14.71-7 29.41-13.92 44-21.05q11-5.33 21.74-10.91c1.81-.92 3.56-1.9 5.35-2.85l2.66-1.44 2.61-1.49c1.74-1 3.5-2 5.1-3.07.82-.53 1.66-1 2.45-1.6l2.27-1.79a109.54 109.54 0 008.71-8.08c1.43-1.39 2.81-2.87 4.19-4.34s2.77-2.93 4.11-4.44c5.45-6 10.69-12.15 15.91-18.35q15.55-18.69 30.35-38.06z" class="cls-7"/><path d="M689.13 523.75h5.57v53h-5.57z" class="cls-7" transform="rotate(-66.11 691.935 550.246)"/><path d="M-142.85 595.66L-29.33 391.8l501.5 190.5-1.98 5.21-496.99-188.8-111.18 199.66-4.87-2.71z" class="cls-7"/><path d="M158.26 231.91h5.57v345.98h-5.57z" class="cls-7" transform="rotate(-68.65 161.027 404.889)"/><path d="M435.86 571.49l-21 55.45-149.75-56.49-147.22-55.28-73.68-27.44q-18.42-6.84-36.88-13.54l-9.24-3.32C-5 469.76-8 468.82-11 467.78a172.82 172.82 0 01-18.84-6.71 368.85 368.85 0 01-35.8-16.95c-2.92-1.6-5.79-3.27-8.65-5.19l-1.08-.74-.53-.37-.42-.26a19 19 0 00-1.85-1.06c-1.36-.7-2.81-1.36-4.28-2-5.9-2.53-12-4.8-18.17-7-12.29-4.39-24.72-8.5-37.17-12.53s-24.95-8-37.46-11.77l1.62-5.33q18.84 5.75 37.55 11.8c12.49 4 25 8.16 37.34 12.59 6.2 2.22 12.37 4.49 18.51 7.13 1.54.67 3.07 1.36 4.63 2.16a24.79 24.79 0 012.4 1.39l.61.4.48.33 1 .66c2.59 1.73 5.38 3.36 8.21 4.91a369.16 369.16 0 0035.22 16.68 172.29 172.29 0 0018.11 6.48c3.16 1.07 6.45 2.1 9.52 3.22L9.21 469q18.51 6.71 36.93 13.55l73.7 27.45 147.23 55.29 144.54 54.52 19-50.25zM324.6 765.57l44.25-90.71 2.76-5.66c.48-1 .9-1.88 1.41-2.86s1.07-2 1.68-2.93a73.37 73.37 0 018-10.36 110.48 110.48 0 0119.54-16.89c1.81-1.2 3.65-2.36 5.55-3.43a47.3 47.3 0 016-2.92 48 48 0 0113-2.87 86 86 0 0113-.13 101.93 101.93 0 0112.9 1.61l-1.14 5.46a98 98 0 00-12.11-1.51 80.83 80.83 0 00-12.16.11 36.88 36.88 0 00-16.83 5.11c-1.76 1-3.48 2.07-5.18 3.19a106 106 0 00-18.54 16 68.09 68.09 0 00-7.4 9.55c-.56.83-1 1.69-1.46 2.53s-.92 1.87-1.38 2.8l-2.77 5.67L329.61 768z" class="cls-7"/><path d="M730.23 514.86L506.39 614l-28 12.39-14 6.2-7 3.11a3.3 3.3 0 01-.89.33l-.88.11-.92.11-1.85.21c-1.24.16-2.47.28-3.7.45a94.3 94.3 0 00-14.42 3.45 78.62 78.62 0 00-13.58 5.81 86.21 86.21 0 00-12.38 8.16c-3.94 3-7.65 6.41-11.45 9.85-1.88 1.71-3.87 3.44-5.95 5.11-.33.35-.66.58-1 1s-.72.83-1.08 1.29c-.69 1-1.4 1.91-2 3-2.67 4.12-5.06 8.59-7.37 13.07-4.61 9-8.89 18.23-13.05 27.51-8.3 18.58-16.16 37.4-23.73 56.29l-5.18-2.06c7.61-19 15.48-37.82 23.82-56.51 4.19-9.33 8.49-18.62 13.18-27.78 2.37-4.58 4.79-9.12 7.66-13.57.69-1.11 1.5-2.21 2.3-3.31.43-.55.92-1.1 1.37-1.65a23 23 0 011.73-1.66c1.89-1.52 3.76-3.14 5.65-4.85 7.48-6.87 15.56-13.82 24.89-18.76a92.11 92.11 0 0129.81-9.88l6.89-.82 7-3.09 14-6.19 28-12.4L728 509.76z" class="cls-7"/><path d="M410.44 623.35h5.57v24.33h-5.57zM716.85 797.57l-27.92-2.72L441 701.21Q379.09 677.73 317.28 654l-15.43-6c-5.14-2-10.38-4.2-15.36-6.28-10.14-4.17-20.41-8.25-30.65-12.32l-61.55-24.27Q132.7 581 71 557.09L9.24 533.34c-20.6-7.82-41.24-15.79-61.9-23.1l-3.79-1.24-1.9-.62-2.09-.64-2.08-.64-2-.73c-1.31-.49-2.65-.95-3.94-1.48q-7.77-3.09-15.35-6.48c-10.13-4.48-20.14-9.16-30.11-13.91-19.91-9.55-39.72-19.32-59.31-29.54-9.74-4.95-19.73-9.68-29.67-14.42l-29.92-14.1-60-27.89 2.34-5.06 60 27.91 29.94 14.11c10 4.75 19.92 9.46 29.84 14.51 19.53 10.18 39.29 19.92 59.15 29.45 9.94 4.74 19.92 9.4 30 13.85q7.53 3.35 15.13 6.39c1.27.51 2.53.94 3.8 1.42l1.9.7 1.87.58 1.85.59 2 .66 4.07 1.33c20.93 7.41 41.45 15.34 62.09 23.18L73 551.89q61.73 23.88 123.33 48.05l61.57 24.28c10.26 4.08 20.49 8.14 30.74 12.36 5.2 2.17 10.15 4.22 15.26 6.24l15.4 6Q381 672.64 442.93 696l247.27 93.38 27.19 2.62z" class="cls-7"/><path d="M607.27 694.89h84.74v5.57h-84.74z" class="cls-7" transform="rotate(-64.78 649.68 697.69)"/><path d="M66.92 591.81h57.63v5.57H66.92z" class="cls-7" transform="rotate(-69.15 95.755 594.611)"/><path d="M204.51 312.69l-2.51 5.36-2.59 5.32c-.87 1.77-1.72 3.55-2.61 5.31l-2.7 5.26-5.41 10.63c-1.84 3.55-3.49 7.16-5.21 10.75l-2.57 5.39-2.49 5.41-4.96 10.88-4.86 10.87c-12.9 29-25.29 58.2-37.58 87.45s-24.39 58.56-36.36 87.94l5.16 2.09q17.94-44 36.34-87.87c12.28-29.23 24.66-58.41 37.53-87.35l4.85-10.84 4.93-10.79 2.48-5.4 2.55-5.35c1.71-3.55 3.35-7.16 5.16-10.64L199 336.5l2.74-5.32c.9-1.78 1.75-3.57 2.63-5.36l2.62-5.37 2.53-5.4c1.71-3.6 3.35-7.22 5-10.84q11.43-25.47 21.66-51.39h-6q-9.88 24.76-20.74 49.1c-1.61 3.6-3.24 7.2-4.93 10.77zM138.89 297.82l17.86-45h-5.99l-17.04 42.95 5.17 2.05zM542.29 353.92c-1.88 2-3.8 4.41-5.61 6.73s-3.59 4.74-5.32 7.17l-1.29 1.82-.64.92-.55.9-1.1 1.8c-.37.61-.72 1.29-1.08 1.93-1.44 2.58-2.82 5.24-4.19 7.91-5.48 10.67-10.73 21.52-16 32.36q-15.6 32.54-30.77 65.39l-5.06-2.34q15.24-32.82 30.85-65.46c5.24-10.87 10.49-21.73 16-32.51 1.39-2.69 2.78-5.38 4.28-8.06.37-.68.71-1.34 1.12-2l1.26-2.06.63-1 .66-.94 1.32-1.86q2.64-3.72 5.46-7.35c1.9-2.43 3.76-4.76 6-7.15zM528.76 343.29l51.66-90.47H574l-50.08 87.71 4.84 2.76zM643.53 434.74L634.3 451l-4.62 8.13-4.45 8.23-17.8 32.95-17.8 32.95-8.9 16.47-4.32 8V566h-5.57v-9.35a2.71 2.71 0 010-.29l.14-.26.28-.51 4.57-8.47 8.91-16.48 17.8-33 17.81-33 4.46-8.24 4.63-8.15 9.27-16.25zM806.65 458.5l-30.16-101.67-52.1-50.85-18.89 23.46 94.27 87.63-3.8 4.08-98.06-91.17 25.99-32.27 57.52 56.14 30.57 103.07-5.34 1.58z" class="cls-7"/><path d="M608.51 416.48l11.42 9.24 11.54 9.17 23 18.25 46.07 36.51L884.69 635.9l91.83 73.37 22.85 18.44 11.38 9.25 5.53 4.62 2.77 2.32c.93.77 1.77 1.58 2.65 2.37a186.13 186.13 0 0119.57 20.53q4.51 5.48 8.56 11.29c1.35 1.93 2.64 3.9 3.9 5.87.61 1 1.24 2 1.82 3 .3.5.58 1 .86 1.48l.77 1.38 11.87-6.14c-.38-.72-.67-1.25-1-1.84s-.65-1.14-1-1.69c-.66-1.12-1.34-2.2-2-3.3q-2.05-3.24-4.24-6.37-4.35-6.26-9.19-12.12a199.6 199.6 0 00-20.94-22c-.94-.84-1.87-1.72-2.83-2.52l-2.87-2.4-5.74-4.8-11.43-9.3-22.9-18.47L893 625.44 708.89 479.17l-46.08-36.52-23-18.25-11.48-9.11-11.46-9.29-91.37-74-97.86-79.24h-21.25l110.74 89.66zM588 435.06l93.11 73.68 186.26 147.35 93.12 73.67L1007 766.6l5.82 4.6 2.91 2.31c.52.39.92.75 1.33 1.11l1.23 1.07a66.9 66.9 0 019 10 98.25 98.25 0 017.39 11.76c1.1 2.06 2.16 4.15 3.13 6.27.49 1.06 1 2.13 1.41 3.19l.66 1.6.58 1.49 12.6-4.48c-.28-.76-.5-1.33-.76-2l-.76-1.84c-.51-1.21-1-2.4-1.59-3.59-1.09-2.37-2.26-4.7-3.5-7a112 112 0 00-8.39-13.35 80.56 80.56 0 00-10.81-12l-1.56-1.36c-.53-.46-1-.92-1.52-1.27l-2.91-2.31-5.82-4.6-46.57-36.84-93.12-73.69-186.26-147.38-93.12-73.69-92.54-74.39-121.07-97.39h-21.33l134 107.83z" class="cls-7"/></g><path fill="url(#radial-gradient-2)" d="M104.3 743.49h573.12c41.25-113.81 6-239.24-88.77-317.52-94.06-77.7-238.23-101.97-353.41-41.37-126.89 66.71-186.1 219.26-130.94 358.89z"/><path d="M362 133.64H200.94a36.53 36.53 0 00-36.42 36.42v432.75a36.53 36.53 0 0036.42 36.42H362a36.53 36.53 0 0036.42-36.42V170.06A36.53 36.53 0 00362 133.64zm30.37 468a30.27 30.27 0 01-30.19 30.19H200.76a30.27 30.27 0 01-30.19-30.19V171.23A30.27 30.27 0 01200.76 141H362.2a30.27 30.27 0 0130.19 30.19z" class="cls-9"/><g opacity=".78"><rect width="221.83" height="490.8" x="170.57" y="141.04" fill="url(#linear-gradient)" opacity=".67" rx="30.19"/><path fill="#bddeed" d="M358.9 133.64H204.05l12.23 12.22h130.4l12.22-12.22z"/></g><path d="M183.59 227.33h-47.75L157 170h41.69c.69 0-15.1 57.33-15.1 57.33z" class="cls-7"/><path d="M231.31 227.33h-47.74L198.71 170h41.69z" class="cls-13"/><path d="M279.08 227.33h-47.75l9.09-57.3h41.69z" class="cls-14"/><path d="M326.8 227.33h-47.75l3-57.3h41.69z" class="cls-13"/><path d="M374.57 227.33h-47.75l-3-57.3h41.69z" class="cls-14"/><path d="M422.29 227.33h-47.75L365.46 170h41.69z" class="cls-13"/><path d="M198.51 123.76a.08.08 0 01.08.08v47.4h-41.74v-5.83a41.66 41.66 0 0141.66-41.65z" class="cls-15"/><path d="M198.59 123.76h41.74v47.49h-41.74z" class="cls-16"/><path d="M240.34 123.76h41.74v47.49h-41.74z" class="cls-15"/><path d="M282.08 123.76h41.74v47.49h-41.74z" class="cls-16"/><path d="M323.82 123.76h41.74v47.49h-41.74z" class="cls-15"/><path d="M365.56 123.76a41.74 41.74 0 0141.74 41.74v5.74h-41.74v-47.48z" class="cls-16"/><path d="M135.85 227.33h47.77v6.49a23.76 23.76 0 01-23.76 23.76h-3a21 21 0 01-21-21v-9.22l-.01-.03zM231.29 227.33h47.77v6.49a23.76 23.76 0 01-23.76 23.76h-3a21 21 0 01-21-21v-9.22l-.01-.03zM326.84 227.33h47.77v6.49a23.76 23.76 0 01-23.76 23.76h-3a21 21 0 01-21-21v-9.22z" class="cls-17"/><path d="M183.57 227.33h47.77v6.08a24.17 24.17 0 01-24.17 24.17h-3a20.62 20.62 0 01-20.6-20.58v-9.63-.04zM279 227.33h47.77v6.49a23.76 23.76 0 01-23.76 23.76h-3a21 21 0 01-21-21v-9.22l-.01-.03zM374.57 227.33h47.77v6.49a23.76 23.76 0 01-23.76 23.76h-3a21 21 0 01-21-21v-9.22l-.01-.03z" class="cls-7"/><path d="M183.59 227.33h-47.75L157 170h41.69c.69 0-15.1 57.33-15.1 57.33z" class="cls-14"/><path d="M220.83 633.17a28.53 28.53 0 0120.17-8.38h83.16a23.42 23.42 0 0117.95 8.38H220.83z" class="cls-9"/><circle cx="280.74" cy="381.99" r="84.88" fill="#fff" opacity=".85"/><path fill="#d36442" d="M292 365.31h-42.65a3.25 3.25 0 00-3.25 3.23l-.22 46.66a3.24 3.24 0 003.25 3.28h63.16a3.26 3.26 0 003.25-3.26v-46.66a3.26 3.26 0 00-3.25-3.25z"/><path fill="#c84d31" d="M291.99 361.9H246.2l-.26 15.17h69.52V361.9h-23.47z"/><path fill="#ed6344" d="M294.69 358.49h-53.58a3.26 3.26 0 00-3.26 3.17l-.17 7.14a3.26 3.26 0 003.25 3.33h79.61a3.24 3.24 0 003.25-3.25v-7.14a3.24 3.24 0 00-3.25-3.25z"/><path d="M350.73 666.58a1.25 1.25 0 000-2.49 1.25 1.25 0 000 2.49zM547.81 656.83a1.25 1.25 0 000-2.5 1.25 1.25 0 000 2.5z" class="cls-22"/><path fill="#be492e" d="M452.45 311.88c9.11 9.62 22.5 10 35.7 10.15 26.41.22 28-8.77 47.26-7.38 20.59 1.48 19.84 11.88 47.6 16.55 14.37 2.42 16.22-.09 37.63 3 19.46 2.78 21.93 5.43 31.88 5.86 11 .48 26.9-1.92 46.93-15.81-7.76-8.07-10.83-15.48-12.14-21-1.29-5.35-.42-7.63-2.42-11.47-3.62-6.95-10.93-11.09-19.68-14-14.78-4.92-29.48-4.35-44.64-6.65-23.36-3.55-43.11-18.68-66.65-22.71-18.17-3.11-37.47-2.74-53.33 7.91a29.82 29.82 0 00-7 6.7 23.78 23.78 0 01-.56 5.29 24.67 24.67 0 01-4.61 11.36c-8.09 10.72-25.7 13.88-44.21 8.07.04 6.57 1.21 16.71 8.24 24.13z"/><path d="M566.82 376.79c-.2 4.8-6.1 8.14-11.55 11-8 4.28-19.24 9.88-33.63 15.83-3.87 1.89-5 3.95-5.45 5.41-1 3.52 2 6 .65 10.52-.25.82-1 3.16-2.49 3.47-2 .39-4-2.74-4.39-3.35-1-1.58-1.21-2.89-2.12-9-.44-2.95-.65-4.42-.65-4.48.21-5.87 10.32-9.83 17.63-13.43A117 117 0 00548.64 377a182.55 182.55 0 00-16.52-12.84c-14.52-10-27.64-15.86-28.8-24.17a23.16 23.16 0 00-1.91-7.18 22.49 22.49 0 00-4.47-6.45 141.29 141.29 0 0017.37 11.07c6.25 3.38 7.17 3.28 13.72 6.51 15.2 7.5 22.23 14 33.21 24.12 3.29 3.08 5.76 5.55 5.58 8.73zM472.13 314a28.11 28.11 0 01.3 5.55 28.41 28.41 0 01-.83 5.57l-4.4 1-.48 8.52c-4.37 6.76-5.51 14.49-2.32 19.53 5.65 8.94 24.39 8.63 30.64-1.41 4.84-7.78 1.84-20.81-9.06-27.6a4.13 4.13 0 01-3.11-.7c-.5-.42-1.05-1.21-1.3-4.4a25.21 25.21 0 01.32-6.38zM394 379.1c.2 4.8 6.1 8.14 11.55 11 8 4.28 19.24 9.88 33.62 15.83 3.88 1.89 5.06 3.95 5.46 5.41 1 3.51-2 6-.65 10.51.25.83.95 3.16 2.49 3.47 2 .4 4-2.74 4.39-3.35 1-1.57 1.21-2.88 2.12-9 .43-2.94.65-4.42.65-4.47-.21-5.87-10.32-9.84-17.63-13.44a116.41 116.41 0 01-23.83-15.76 181.93 181.93 0 0116.53-12.83c14.51-10 27.64-15.86 28.8-24.18a23.41 23.41 0 011.9-7.18 22.46 22.46 0 014.48-6.44 142.5 142.5 0 01-17.37 11.07c-6.25 3.38-7.17 3.27-13.72 6.5-15.2 7.5-22.23 14-33.21 24.12-3.28 3.08-5.7 5.56-5.58 8.74z" class="cls-24"/><path d="M460.3 258.35c-10.3 9.65-14.3 30.53-5.58 43.86 8 12.21 22.38 11.63 25.37 11.51 3.39-.13 13.77-.55 21-9.54 9.74-12.13 9.23-34.2-1-45.12-7.69-8.19-18.46-7.57-22.19-7.35-3.56.21-11.19.65-17.6 6.64z" class="cls-24"/><path d="M507.3 277.85c6.62-4.63 13.24 6.26 6 9.87-2.75 1.35-7.25 1.68-7.82-2.14-.23-1.52-.28-6.93 1.41-7.3" class="cls-24"/><path fill="#112c39" d="M647.64 285.32a1.25 1.25 0 000-2.5 1.25 1.25 0 000 2.5z"/><path d="M472 254.79c2.66 11.14 14.91 15.67 20 17.56 6.18 2.3 12.79 2.7 16.58 2.93a76 76 0 0012.27-.26 64.42 64.42 0 0137.26 26.63c6.16 9.19 14.27 13.51 22.7 16.57 11.24 4.09 17.77 0 30.74-1 32-2.37 39.14 19.15 66.5 15 3.21-.49 23.82-3.64 32.77-20.27s0-35.4-1.19-37.89c-11.21-22.69-38.49-29.47-60.39-34.58-49.8-11.62-56.17 8.06-98.69-5.19a149.55 149.55 0 00-51.23-6.83c-7.75.4-16.16 1.56-22 8-4.32 4.79-7.05 12.24-5.32 19.33z" class="cls-26"/><path d="M450.21 277.85c-6.63-4.63-13.25 6.26-6 9.87 2.74 1.35 7.25 1.68 7.82-2.14.23-1.52.27-6.93-1.42-7.3" class="cls-24"/><path d="M443.46 278c4.87 2.68 16.5-8.52 22.76-17a64.28 64.28 0 0011.09-25.49 39 39 0 00-15.1 3.69c-2 .94-16.31 8-20 23.43-.21.96-3.04 13.03 1.25 15.37z" class="cls-26"/><path d="M466.71 723.32c1 3.25 4 14.42-1.32 19-2.1 1.83-4.2 1.5-13.79 1.65-14.82.24-21 1.44-21.36-.1-.29-1.17 2.95-2.91 7.28-5.25A75.3 75.3 0 01450.8 733l2.86-9.82zM488.23 723.32c-1 3.25-3.94 14.42 1.32 19 2.1 1.83 4.21 1.5 13.79 1.65 14.82.24 21 1.44 21.36-.1.29-1.17-2.94-2.91-7.28-5.25a75 75 0 00-13.28-5.62l-2.85-9.82z" class="cls-27"/><path d="M275.06 377.07h10.92v41.41h-10.92z" class="cls-28"/><path d="M275.06 358.49h10.92v13.65h-10.92z" class="cls-29"/><path fill="#e47790" d="M275.06 372.13h10.92v4.93h-10.92z"/><path d="M293.32 341c-3.33 0-6.2 1.72-8.7 3.78a18.43 18.43 0 00-4.48 5.56 20.83 20.83 0 00-3.48-4.93 18.48 18.48 0 00-3.57-2.91 11 11 0 00-3.81-1.55 9.92 9.92 0 00-2.49-.23 9.51 9.51 0 00-3.74 1 7.51 7.51 0 00-4 4.86 8 8 0 001.21 6.21 15.46 15.46 0 003.88 3.9 12.47 12.47 0 005.42 2.21c2 .31 4 .35 5.94.56a3.42 3.42 0 001.17-.13 3.88 3.88 0 001.09-.17 5.32 5.32 0 002.6-1.74 4.82 4.82 0 002.25 1.38 7 7 0 00.8.12 4.19 4.19 0 001.45.23c1.42 0 2.84.06 4.26 0a15.89 15.89 0 006.35-1.6 13.36 13.36 0 003.84-2.91 9.08 9.08 0 002.62-5.82c.13-4.58-4.36-7.92-8.61-7.82z" class="cls-29"/><path d="M274.52 350.86v5.79A4.46 4.46 0 00275 359a5.39 5.39 0 003.17 3.17 4.46 4.46 0 002.31.52l1.59-.21a6 6 0 002.65-1.55l.94-1.21a6 6 0 00.81-3v-5.79a5.78 5.78 0 00-3.68-5.48 4.51 4.51 0 00-2.31-.52l-1.6.21a6 6 0 00-2.64 1.55 6.2 6.2 0 00-1.76 4.24z" class="cls-28"/><ellipse cx="282.35" cy="701.88" fill="#d28520" rx="104.08" ry="10.23"/><path fill="#96689c" d="M509 418.24a519.298 519.298 0 00-6.51-24.75l-23.67 4.15-20.46-1.34c-1.88 5.87-4.61 14.78-7.43 25.72C431 499 439.69 547.44 435 619.22a674.6 674.6 0 01-15.82 107l53.8.64q1.74-69 2.75-139.41.93-66.07 1.18-131l5.89-.23c1.81 87 1.77 121.48 1.07 132.5v.61c-2.66 42-3.79 87.76-2.63 137.53l50-1.9c-5.72-47.76-7.58-86.74-8.23-113.3-1.78-70.15 3.26-120.3-14.01-193.42z"/><path d="M428.72 366.51a26.49 26.49 0 0010-1.31 26.9 26.9 0 0012.48-8.92 212.06 212.06 0 00-1.68 23.72c-.09 6.86.19 11.86 3.67 14.53a9.2 9.2 0 005.12 1.74 60.07 60.07 0 0044.13-2.81 6.71 6.71 0 004.38-.71c3.45-2.09 3.53-7.74 3.33-13.8a223.85 223.85 0 00-2.38-26 13.86 13.86 0 0013.91 4.24l13.2-9.9a25.68 25.68 0 00-6.69-13.57c-5.87-6.09-13.12-7.21-16.18-7.64a30.75 30.75 0 00-11 .46l-15-1.42a42.76 42.76 0 012.7 10.39c.6 4.68 1 7.44-.71 9.66s-4.35 2.58-9.66 3.3-8.56 1.16-10.38-.71c-1.55-1.59-1.07-3.78-.8-10 .22-5 .16-9 .07-11.64l-13.41 3.3a22.9 22.9 0 00-14.38-.47c-7 2.15-10.63 7.24-12.73 10.13a32.29 32.29 0 00-5.71 13.81 43.39 43.39 0 017.71 13.62z" class="cls-28"/><path d="M421.24 352.65a22.8 22.8 0 00-6.16-.63c-.8 0-1.8.24-2 1a1.44 1.44 0 00.87 1.54 9.37 9.37 0 001.83.52 2.07 2.07 0 011.46 1.11 2.79 2.79 0 01-.58 2.23c-.38.69-.69 1.62-.18 2.23a1.74 1.74 0 001.48.46 7.74 7.74 0 011.59-.11 1.25 1.25 0 011.13 1 1.67 1.67 0 01-.37 1l-1.15 1.8a4.7 4.7 0 00-.78 1.7 1.57 1.57 0 00.67 1.63 2.42 2.42 0 002-.2 2.08 2.08 0 012-.05c.58.43.57 1.27.59 2s.28 1.61 1 1.73c.89.16 1.63-1.06 2.49-.79.42.13.65.56.93.89s.8.59 1.13.31a1 1 0 00.24-.72 27.52 27.52 0 00-3.18-14.3 9.7 9.7 0 00-4.12-4.52M521.55 347.15a.83.83 0 000-1.65.83.83 0 000 1.65zM521.83 355.29a11.38 11.38 0 00.12 6c.37 1.47.72 1.8 1 1.88a1.39 1.39 0 001.42-.74 9.54 9.54 0 00.62-1.59 1.94 1.94 0 011.13-1.21 2.63 2.63 0 011.85.52 2 2 0 001.86.3c.72-.4.71-1.42.52-2.21s-.44-1.72.05-2.37a1.93 1.93 0 011.93-.52c.69.14 1.33.48 2 .63a1.93 1.93 0 001.94-.5c.38-.48.36-1.17.67-1.71.57-1 1.94-1.07 3.08-1.18a2.54 2.54 0 001.22-.34 1 1 0 00.46-1.1c-.11-.31-.41-.53-.51-.84-.16-.5.24-1 .64-1.34s.86-.73.88-1.25-.69-.93-.95-1.08c-1.89-1.1-5.9-.48-7-.29a11.8 11.8 0 00-11.91 6.32 11.66 11.66 0 00-1.02 2.62z" class="cls-28"/><circle cx="282.35" cy="541.65" r="31.01" fill="#996b9e"/><path d="M278.13 550a2.53 2.53 0 01-1.92-.88L270 542a2.55 2.55 0 113.84-3.36l4.65 5.31 12.78-10a2.55 2.55 0 113.15 4l-14.72 11.46a2.5 2.5 0 01-1.57.59z" class="cls-7"/></g></g></svg>