<svg xmlns="http://www.w3.org/2000/svg" width="747" height="515" viewBox="0 0.469 747 515"><defs/><path fill="#F1F3FF" d="M189.525 18.926C352.64-71.382 777.64 270.063 725.81 395.688 662.101 550.109 94.088 538.574 37.056 426.455c-58.103-114.227-9.163-318.039 152.469-407.529z"/><path fill="#C2C9CE" d="M359.171 426.224c-1.122-77.171-2.513-188.216-2.513-200.654 0-20.348 1.774-122.505-2.432-122.505-4.85 0-5.206 106.598-7.589 133.211-1.368 15.267-3.237 117.196-4.522 189.948h17.056z"/><linearGradient id="a" x1="315.2" x2="383.875" y1="92.952" y2="92.952" gradientUnits="userSpaceOnUse"><stop offset="0" stop-color="#c66fd7"/><stop offset="1" stop-color="#5937e5"/></linearGradient><path fill="url(#a)" fill-rule="evenodd" d="M353.407 58.837c-18.841-2.135-35.845 11.403-37.985 30.243-2.137 18.84 11.403 35.851 30.246 37.987 18.841 2.139 35.846-11.404 37.986-30.245 2.136-18.84-11.404-35.847-30.247-37.985z" clip-rule="evenodd"/><path fill="#FFF" fill-rule="evenodd" d="M354.58 79.431l.257-2.256a.995.995 0 00-.873-1.101l-3.951-.45a1.001 1.001 0 00-1.099.878l-.242 2.142c-4.67.341-7.909 2.99-8.355 6.918-.756 6.208 4.502 8.478 7.986 9.979 4.079 1.757 4.913 2.517 4.716 4.293-.204 1.8-3.145 1.948-4.841 1.756-1.621-.179-3.482-.908-4.544-1.78a.996.996 0 00-1.399.142l-2.515 3.074a.982.982 0 00.14 1.396c1.464 1.2 3.461 2.17 5.579 2.71l-.23 2.042a.998.998 0 00.872 1.102l3.953.447a.992.992 0 001.098-.878l.267-2.368c4.256-.624 7.116-3.238 7.54-6.971.746-6.55-4.683-8.892-8.275-10.44-3.866-1.666-4.611-2.31-4.423-3.813.191-1.672 2.984-1.8 4.616-1.615 1.994.225 4.138 1.376 5.208 2.803.16.212.395.351.651.387a.987.987 0 00.744-.187l3.177-2.39a1 1 0 00.195-1.394c-1.477-1.953-3.719-3.539-6.252-4.426z" clip-rule="evenodd"/><path fill="#C2C9CE" d="M384.964 242.593c-.246-.592-.441-1.171-.7-1.688-.291-.496-.567-.963-.825-1.405-.568-.844-1.158-1.508-1.605-2.062-1.031-.989-1.62-1.557-1.62-1.557s.486.645 1.338 1.781c.349.611.812 1.334 1.21 2.208.175.448.363.923.556 1.422.159.509.251 1.069.39 1.627.195 1.139.205 2.383.033 3.661-.117.632-.301 1.272-.473 1.911-.285.613-.477 1.265-.838 1.861-.688 1.209-1.514 2.388-2.577 3.404a11.916 11.916 0 01-1.637 1.476c-.553.491-1.188.899-1.814 1.305-1.232.808-2.61 1.546-3.91 2.067-1.175.57-2.911 1.074-4.22 1.551-3.261 1.101-6.146 2.87-8.255 4.828-2.151 1.925-3.549 3.956-4.428 5.458-.291.512-.508.939-.695 1.324h8.909a14.5 14.5 0 011.286-1.907c1.225-1.585 3.045-3.191 5.399-4.452 1.439-.801 2.683-1.352 4.27-2.399a27.603 27.603 0 004.209-3.181c.655-.59 1.298-1.18 1.866-1.865a15.499 15.499 0 001.64-2.045c1.038-1.392 1.812-2.959 2.379-4.514.304-.771.426-1.604.63-2.363.085-.795.179-1.572.188-2.322-.035-1.512-.29-2.91-.706-4.124zM392.704 160.601c-.801 1.096-1.607 2.388-2.418 3.855a81.421 81.421 0 00-2.285 4.845c-.756 1.728-1.535 3.531-2.452 5.298a34.835 34.835 0 01-3.224 5.134 38.585 38.585 0 01-4.163 4.6c-1.521 1.452-3.153 2.73-4.752 3.96a161.069 161.069 0 01-5.143 3.529 163.746 163.746 0 00-9.324 6.616 126.484 126.484 0 00-6.338 5.152 55.173 55.173 0 00-2.382 2.164l6.121 5.668s.582-.73 1.837-2.11a117.447 117.447 0 015.369-5.512 157.145 157.145 0 018.164-7.361c1.681-1.405 3.166-2.734 4.813-4.23 1.649-1.599 3.271-3.235 4.719-5.002a41.615 41.615 0 003.942-5.58 37.754 37.754 0 002.799-5.947c.741-1.98 1.31-3.904 1.852-5.702a75.923 75.923 0 011.647-4.972c.605-1.495 1.23-2.839 1.871-3.989.631-1.157 1.299-2.098 1.804-2.906l1.829-2.379-2.112 2.153c-.605.742-1.396 1.616-2.174 2.716zM346.202 233.166a162.97 162.97 0 00-9.324-6.279c-1.614-.985-3.432-2.199-5.165-3.332-1.594-1.18-3.248-2.359-4.769-3.748a35.788 35.788 0 01-4.233-4.385c-1.27-1.558-2.342-3.238-3.292-4.944-.928-1.722-1.731-3.465-2.496-5.156a73.322 73.322 0 00-2.322-4.733c-.812-1.432-1.633-2.692-2.437-3.746-.791-1.07-1.592-1.905-2.203-2.623l-2.134-2.066s.676.835 1.854 2.3c.512.781 1.194 1.691 1.83 2.82.655 1.116 1.287 2.426 1.898 3.886a72.882 72.882 0 011.684 4.867c.544 1.757 1.145 3.643 1.896 5.583.778 1.929 1.718 3.908 2.906 5.791a38.595 38.595 0 004.037 5.379c1.462 1.707 3.126 3.255 4.768 4.798 1.658 1.396 3.149 2.704 4.832 4.026a155.38 155.38 0 018.189 7.039 116.62 116.62 0 015.401 5.288c1.271 1.328 1.857 2.031 1.857 2.031l5.98-5.816s-.908-.847-2.397-2.071a125.708 125.708 0 00-6.36-4.909z"/><linearGradient id="b" x1="389.498" x2="431.923" y1="145.784" y2="145.784" gradientUnits="userSpaceOnUse"><stop offset="0" stop-color="#c66fd7"/><stop offset="1" stop-color="#5937e5"/></linearGradient><path fill="url(#b)" fill-rule="evenodd" d="M395.708 130.785c-8.278 8.286-8.281 21.714 0 29.998 8.289 8.285 21.717 8.285 30 0 8.289-8.284 8.284-21.712 0-29.998-8.283-8.285-21.711-8.285-30 0z" clip-rule="evenodd"/><path fill="#FFF" fill-rule="evenodd" d="M418.45 150.475c1.339-2.297 1.175-4.69-.471-6.33-2.879-2.877-6.099-1.156-8.231-.015-2.287 1.228-2.889 1.34-3.544.667-.731-.73.281-2.136.994-2.847.875-.88 2.259-1.472 3.363-1.442a.601.601 0 00.437-.164.637.637 0 00.194-.435l.066-2.454a.616.616 0 00-.597-.629c-1.513-.039-3.142.436-4.544 1.317l-.991-.994a.617.617 0 00-.87-.001l-1.737 1.737a.615.615 0 000 .869l.947.941c-1.639 2.391-1.605 4.975.121 6.699 2.709 2.756 5.835 1.086 7.897-.016 2.421-1.296 3.111-1.409 3.888-.628.796.794-.266 2.271-1.006 3.016-.713.717-1.783 1.333-2.614 1.513a.61.61 0 00-.466.729l.513 2.395a.608.608 0 00.729.472c1.146-.245 2.379-.838 3.46-1.654l.899.898a.618.618 0 00.868.001l1.737-1.737a.614.614 0 00-.005-.868l-1.037-1.04z" clip-rule="evenodd"/><g><linearGradient id="c" x1="259.594" x2="328.259" y1="170.809" y2="170.809" gradientUnits="userSpaceOnUse"><stop offset="0" stop-color="#c66fd7"/><stop offset="1" stop-color="#5937e5"/></linearGradient><path fill="url(#c)" fill-rule="evenodd" d="M269.651 146.532c-13.409 13.408-13.411 35.147-.003 48.557 13.407 13.402 35.148 13.406 48.554 0 13.408-13.41 13.408-35.149 0-48.56-13.406-13.404-35.146-13.404-48.551.003z" clip-rule="evenodd"/><path fill="#FFF" fill-rule="evenodd" d="M306.449 178.402c2.166-3.716 1.904-7.585-.756-10.243-4.658-4.66-9.871-1.872-13.324-.022-3.709 1.98-4.675 2.167-5.734 1.082-1.194-1.19.454-3.463 1.609-4.617 1.417-1.419 3.657-2.38 5.442-2.327.267.002.515-.091.706-.271.192-.186.307-.439.311-.696l.108-3.973a.986.986 0 00-.962-1.024c-2.45-.066-5.086.7-7.357 2.127l-1.606-1.604a.988.988 0 00-1.402 0l-2.815 2.81a.999.999 0 00.004 1.408l1.525 1.523c-2.647 3.862-2.591 8.046.203 10.844 4.386 4.459 9.436 1.758 12.781-.032 3.916-2.097 5.034-2.276 6.297-1.013 1.283 1.281-.431 3.672-1.643 4.882-1.149 1.153-2.878 2.155-4.219 2.443a1 1 0 00-.765 1.181l.839 3.882a.976.976 0 001.176.761c1.856-.395 3.855-1.355 5.599-2.678l1.453 1.455a1.002 1.002 0 001.409.004l2.81-2.811a.997.997 0 000-1.409l-1.689-1.682z" clip-rule="evenodd"/></g><path fill="#C2C9CE" d="M348.394 388.922a114.168 114.168 0 00-6.553-4.412c-1.134-.693-2.412-1.546-3.63-2.342-1.12-.83-2.283-1.658-3.352-2.634a25.149 25.149 0 01-2.976-3.083c-.893-1.095-1.647-2.276-2.314-3.476-.651-1.21-1.217-2.435-1.753-3.624a51.26 51.26 0 00-1.632-3.326 23.17 23.17 0 00-1.713-2.633c-.556-.752-1.119-1.338-1.548-1.844l-1.5-1.451s.475.587 1.303 1.616c.359.55.839 1.188 1.286 1.982.46.783.904 1.704 1.334 2.73a50.855 50.855 0 011.183 3.421c.383 1.235.806 2.561 1.333 3.924.547 1.356 1.208 2.746 2.042 4.07a27.088 27.088 0 002.837 3.78c1.027 1.2 2.197 2.289 3.351 3.372 1.166.981 2.214 1.901 3.396 2.83a108.6 108.6 0 015.756 4.948 82.246 82.246 0 013.796 3.717 31.833 31.833 0 011.305 1.427l4.203-4.088s-.638-.596-1.686-1.456a89.194 89.194 0 00-4.468-3.448z"/><g><linearGradient id="d" x1="299.958" x2="333.202" y1="355.748" y2="355.748" gradientUnits="userSpaceOnUse"><stop offset="0" stop-color="#c66fd7"/><stop offset="1" stop-color="#5937e5"/></linearGradient><circle cx="316.581" cy="355.748" r="16.622" fill="url(#d)" fill-rule="evenodd" clip-rule="evenodd"/><path fill="#FFF" fill-rule="evenodd" d="M322.643 359.424c1.048-1.799.922-3.673-.366-4.96-2.255-2.256-4.779-.905-6.451-.011-1.795.959-2.263 1.05-2.776.525-.578-.576.22-1.678.779-2.236.686-.687 1.771-1.152 2.635-1.126a.484.484 0 00.492-.468l.052-1.924a.478.478 0 00-.466-.496c-1.186-.031-2.461.339-3.561 1.03l-.778-.776a.477.477 0 00-.678 0l-1.363 1.36a.485.485 0 00.002.683l.738.736c-1.281 1.87-1.254 3.896.098 5.25 2.123 2.158 4.568.852 6.188-.016 1.896-1.015 2.437-1.102 3.049-.49.62.62-.209 1.777-.796 2.364-.556.558-1.393 1.043-2.042 1.183a.484.484 0 00-.37.571l.406 1.879a.473.473 0 00.57.369c.898-.191 1.866-.656 2.71-1.297l.704.704a.483.483 0 00.681.002l1.36-1.36a.482.482 0 000-.683l-.817-.813z" clip-rule="evenodd"/></g><g><path fill="#D5DBE0" d="M568.958 100.837h15.401l2.09-16.82h-24.972z"/><g fill="#D5DBE0"><path d="M528.794 40.447l-17.533-2.651 11.533 20.938 14.589-4.778c.018-.187.023-7.681.023-7.681 0-4.76-3.852-5.828-8.612-5.828zM522.794 66.608l-11.533 20.938 17.533-2.655c4.76 0 8.612-1.068 8.612-5.828 0 0-.006-7.491-.023-7.681l-14.589-4.774z"/></g><path fill="#F0F0F0" d="M507.92 63.593s119.39-.232 119.6-.003c-14.022-49.437-112.965-21.901-119.6.003z"/><path fill="#D5DBE0" d="M507.92 63.593c6.635 21.907 105.578 49.442 119.6.006-.21.229-119.6-.006-119.6-.006zM578.975 47.243c-43.298 0-70.622 16.189-71.045 16.347h119.59c-.21-.229-5.326-16.347-48.545-16.347z"/><path fill="#F0F0F0" d="M578.975 79.95c43.22 0 48.335-16.115 48.545-16.347H507.93c.423.161 27.747 16.347 71.045 16.347z"/><path fill="#D5DBE0" d="M627.52 63.603l.002-.01-.002-.003z"/></g><g><path fill="#FCD2C5" d="M213.803 246.318c.01.767-3.268 1.509-3.992 1.277-1.573-1.086-.931-2-2.55-2.803 1.507.492 3.208.688 4.803.7.881-.052 1.826-.358 1.739.826z"/><path fill="#FCD2C5" d="M210.882 247.041c1.871 1.266 5.723 4.56 5.993 4.793.746.713 2.845 2.259 3.246 2.967.255.452.441 1.969.185 2.556-.34.777-1.274.683-1.274.683-.233 1.078-2.781-.016-2.779.259.005 1.129-1.537 1.479-4.493-1.173-.176-.158-8.726-5.235-11.325-7.083 1.007-1.689 5.515-5.926 5.609-5.889 1.617.805 3.266 1.802 4.838 2.887zM166.316 152.47c2.187 8.614 1.806 37.299 4.25 51.063 2.997 16.886-9.852 12.948-12.411 8.13-6.737-12.694-19.189-50.719-12.971-54.894 2.698-1.808 20.736-5.859 21.132-4.299z"/><path fill="#FCD2C5" d="M166.542 203.629c.63.263 1.169.593 1.564.938 7.225 6.34 29.885 34.447 38.463 39.854-2.304 2.363-4.063 4.484-5.076 6.325-13.929-9.176-46.036-35.938-44.085-42.311 1.788-5.836 6.351-5.972 9.134-4.806z"/><linearGradient id="e" x1="5318.82" x2="5382.067" y1="200.715" y2="200.715" gradientTransform="matrix(-1 0 0 1 5523.965 0)" gradientUnits="userSpaceOnUse"><stop offset="0" stop-color="#a1d8f6"/><stop offset="1" stop-color="#9e90f2"/></linearGradient><path fill="url(#e)" d="M166.725 150.917c.688.298 1.179.864 1.343 1.549 1.048 4.398 1.362 13.62 1.691 23.383.335 9.813.679 19.961 1.755 26.568.185 1.14.302 2.214.357 3.258 2.748 2.956 6.309 7.062 10.065 11.396 8.201 9.462 18.407 21.24 23.208 24.364l-7.203 9.351c-11.828-8.039-37.537-29.705-42.383-39.565-5.17-10.159-19.431-50.646-11.114-56.055 2.788-1.806 19.262-5.565 22.281-4.249z"/></g><g><path fill="#FFF" d="M359 194.5h122v199H359z"/><linearGradient id="f" x1="441.636" x2="467.519" y1="309.226" y2="283.342" gradientUnits="userSpaceOnUse"><stop offset="0" stop-color="#a1d8f6"/><stop offset="1" stop-color="#9e90f2"/></linearGradient><path fill="url(#f)" d="M464.164 281.952H444.99a4.743 4.743 0 00-4.743 4.745v19.172a4.743 4.743 0 004.743 4.746h19.174a4.743 4.743 0 004.744-4.746v-19.172a4.744 4.744 0 00-4.744-4.745z"/><path fill="#CE61D4" d="M395.311 208.188h-19.173a4.746 4.746 0 00-4.743 4.747v19.174a4.743 4.743 0 004.743 4.743h19.173a4.744 4.744 0 004.746-4.743v-19.174a4.748 4.748 0 00-4.746-4.747z"/><linearGradient id="g" x1="407.211" x2="433.094" y1="235.463" y2="209.58" gradientUnits="userSpaceOnUse"><stop offset="0" stop-color="#a1d8f6"/><stop offset="1" stop-color="#9e90f2"/></linearGradient><path fill="url(#g)" d="M429.738 208.188h-19.173a4.747 4.747 0 00-4.745 4.747v19.174a4.743 4.743 0 004.745 4.743h19.173a4.743 4.743 0 004.744-4.743v-19.174a4.747 4.747 0 00-4.744-4.747z"/><path fill="#CE61D4" d="M464.165 208.188h-19.179a4.747 4.747 0 00-4.742 4.747v19.174a4.744 4.744 0 004.742 4.743h19.179a4.743 4.743 0 004.744-4.743v-19.174a4.747 4.747 0 00-4.744-4.747z"/><linearGradient id="h" x1="440.244" x2="468.909" y1="259.402" y2="259.402" gradientUnits="userSpaceOnUse"><stop offset="0" stop-color="#c66fd7"/><stop offset="1" stop-color="#5937e5"/></linearGradient><path fill="url(#h)" d="M464.165 245.07h-19.179a4.747 4.747 0 00-4.742 4.746v19.172a4.745 4.745 0 004.742 4.746h19.179a4.744 4.744 0 004.744-4.746v-19.172a4.745 4.745 0 00-4.744-4.746z"/><linearGradient id="i" x1="372.784" x2="398.668" y1="272.492" y2="246.608" gradientUnits="userSpaceOnUse"><stop offset="0" stop-color="#a1d8f6"/><stop offset="1" stop-color="#9e90f2"/></linearGradient><path fill="url(#i)" d="M395.311 245.217h-19.173a4.746 4.746 0 00-4.743 4.746v19.173a4.744 4.744 0 004.743 4.746h19.173a4.745 4.745 0 004.746-4.746v-19.173a4.746 4.746 0 00-4.746-4.746z"/><path fill="#4D3782" d="M429.738 245.217h-19.173a4.746 4.746 0 00-4.747 4.746v19.173a4.745 4.745 0 004.747 4.746h19.173a4.743 4.743 0 004.745-4.746v-19.173a4.743 4.743 0 00-4.745-4.746z"/><linearGradient id="j" x1="405.818" x2="434.483" y1="296.578" y2="296.578" gradientUnits="userSpaceOnUse"><stop offset="0" stop-color="#c66fd7"/><stop offset="1" stop-color="#5937e5"/></linearGradient><path fill="url(#j)" d="M429.738 282.246h-19.173a4.744 4.744 0 00-4.747 4.743v19.175a4.747 4.747 0 004.747 4.745h19.173a4.744 4.744 0 004.745-4.745v-19.175a4.741 4.741 0 00-4.745-4.743z"/><path fill="#CE61D4" d="M395.311 282.246h-19.173a4.743 4.743 0 00-4.743 4.743v19.175a4.746 4.746 0 004.743 4.745h19.173a4.747 4.747 0 004.746-4.745v-19.175a4.744 4.744 0 00-4.746-4.743z"/><path fill="#4D3782" d="M474.196 161.988H365.075c-7.535 0-13.642 6.106-13.642 13.64v236.433c0 7.532 6.107 13.641 13.642 13.641h109.121c7.533 0 13.643-6.108 13.643-13.641V175.628c0-7.534-6.11-13.64-13.643-13.64zm-72.747 18.186a4.546 4.546 0 014.547-4.546h27.279a4.546 4.546 0 110 9.092h-27.279a4.545 4.545 0 01-4.547-4.546zm-13.641-4.546a4.548 4.548 0 110 9.095 4.548 4.548 0 010-9.095zm31.828 240.98a9.093 9.093 0 01-9.093-9.095 9.092 9.092 0 019.093-9.094 9.094 9.094 0 019.093 9.094c0 5.023-4.072 9.095-9.093 9.095zm59.106-81.843v54.562H360.528V198.361h118.214v136.404zm0 0"/><linearGradient id="k" x1="360.525" x2="478.74" y1="362.045" y2="362.045" gradientUnits="userSpaceOnUse"><stop offset="0" stop-color="#a1d8f6"/><stop offset="1" stop-color="#9e90f2"/></linearGradient><path fill="url(#k)" d="M437.822 339.313a4.548 4.548 0 01-4.547-4.548h-9.094a4.547 4.547 0 11-9.095 0h-9.094a4.547 4.547 0 11-9.092 0h-36.376v54.562H478.74v-54.562h-36.374a4.544 4.544 0 01-4.544 4.548z" opacity=".2"/><path fill="#FFF" d="M405.996 184.72h27.279a4.545 4.545 0 100-9.092h-27.279a4.546 4.546 0 100 9.092zm0 0M392.355 180.174a4.546 4.546 0 01-4.548 4.546 4.546 4.546 0 110-9.092 4.547 4.547 0 014.548 4.546zm0 0"/><path fill="#4D3782" d="M405.996 334.765a4.547 4.547 0 11-9.096.002 4.547 4.547 0 019.096-.002zm0 0"/><path fill="#CE61D4" d="M424.182 334.765a4.547 4.547 0 11-9.095 0 4.548 4.548 0 019.095 0zm0 0M442.37 334.765a4.548 4.548 0 11-9.095.001 4.548 4.548 0 019.095-.001zm0 0"/><g><path fill="#CE61D4" d="M395.311 348.975h-19.173a4.745 4.745 0 00-4.743 4.744v19.177a4.744 4.744 0 004.743 4.743h19.173a4.744 4.744 0 004.746-4.743v-19.177a4.746 4.746 0 00-4.746-4.744z"/></g><g><linearGradient id="l" x1="407.21" x2="433.094" y1="376.249" y2="350.365" gradientUnits="userSpaceOnUse"><stop offset="0" stop-color="#a1d8f6"/><stop offset="1" stop-color="#9e90f2"/></linearGradient><path fill="url(#l)" d="M429.738 348.975h-19.173a4.746 4.746 0 00-4.745 4.744v19.177a4.744 4.744 0 004.745 4.743h19.173a4.743 4.743 0 004.744-4.743v-19.177a4.745 4.745 0 00-4.744-4.744z"/></g><g><path fill="#CE61D4" d="M464.165 348.975h-19.179a4.746 4.746 0 00-4.742 4.744v19.177a4.745 4.745 0 004.742 4.743h19.179a4.743 4.743 0 004.744-4.743v-19.177a4.745 4.745 0 00-4.744-4.744z"/></g><path fill="#FFF" d="M428.729 407.514a9.093 9.093 0 11-18.186 0 9.092 9.092 0 019.093-9.094 9.094 9.094 0 019.093 9.094zm0 0"/></g><g><path fill="#F1F3FF" d="M179 210.5h81v102h-81z"/><path fill="#4D3782" d="M257.183 203.261h-74.749c-6.222 0-8.416 2.188-8.416 8.41v164.345c0 6.223 2.194 8.413 8.416 8.413h74.749c6.221 0 8.411-2.19 8.411-8.413V211.671c0-6.222-2.19-8.41-8.411-8.41zm-58.636 171.023h-12.21c-2.245 0-4.072-1.807-4.072-4.05a4.08 4.08 0 014.072-4.094h12.21a4.076 4.076 0 014.069 4.094c0 2.244-1.824 4.05-4.069 4.05zm0-15.506h-12.21c-2.245 0-4.072-1.83-4.072-4.075s1.828-4.064 4.072-4.064h12.21c2.246 0 4.069 1.819 4.069 4.064s-1.824 4.075-4.069 4.075zm0-15.536h-12.21a4.058 4.058 0 01-4.072-4.063 4.076 4.076 0 014.072-4.07h12.21a4.072 4.072 0 014.069 4.07 4.056 4.056 0 01-4.069 4.063zm0-15.507h-12.21c-2.245 0-4.072-1.818-4.072-4.063s1.828-4.069 4.072-4.069h12.21c2.246 0 4.069 1.824 4.069 4.069s-1.824 4.063-4.069 4.063zm27.365 46.549H213.7a4.052 4.052 0 01-4.063-4.05c0-2.271 1.818-4.094 4.063-4.094h12.212a4.077 4.077 0 014.07 4.094 4.057 4.057 0 01-4.07 4.05zm0-15.506H213.7c-2.245 0-4.063-1.83-4.063-4.075s1.818-4.064 4.063-4.064h12.212c2.246 0 4.07 1.819 4.07 4.064s-1.824 4.075-4.07 4.075zm0-15.536H213.7a4.05 4.05 0 01-4.063-4.063 4.068 4.068 0 014.063-4.07h12.212a4.073 4.073 0 014.07 4.07 4.057 4.057 0 01-4.07 4.063zm0-15.507H213.7a4.067 4.067 0 010-8.132h12.212c2.246 0 4.07 1.824 4.07 4.069s-1.824 4.063-4.07 4.063zm27.342 46.549h-12.209c-2.245 0-4.07-1.807-4.07-4.05a4.077 4.077 0 014.07-4.094h12.209c2.245 0 4.069 1.823 4.069 4.094 0 2.244-1.824 4.05-4.069 4.05zm0-15.506h-12.209a4.068 4.068 0 110-8.139h12.209c2.245 0 4.069 1.819 4.069 4.064s-1.824 4.075-4.069 4.075zm0-15.536h-12.209a4.057 4.057 0 01-4.07-4.063 4.074 4.074 0 014.07-4.07h12.209a4.073 4.073 0 014.069 4.07 4.056 4.056 0 01-4.069 4.063zm0-15.507h-12.209c-2.245 0-4.07-1.818-4.07-4.063s1.825-4.069 4.07-4.069h12.209c2.245 0 4.069 1.824 4.069 4.069s-1.824 4.063-4.069 4.063zm4.327-17.536h-75.546v-98.02h75.546v98.02zm0 0"/><g fill="#4D3782" opacity=".3"><path d="M191.957 243.609l3.374-.411v-13.525h-3.415v-2.291l7.407-1.344v17.16l3.374.411v2.399h-10.74v-2.399zM204.479 246.008v-2.619l6.46-6.927c.933-1.07 1.596-1.972 1.99-2.709.393-.735.589-1.419.589-2.05 0-.841-.226-1.529-.678-2.065-.453-.534-1.095-.802-1.927-.802-.924 0-1.626.313-2.106.94-.479.625-.72 1.46-.72 2.502h-3.896l-.028-.082c-.045-1.802.547-3.327 1.776-4.575 1.23-1.248 2.888-1.872 4.973-1.872 2.057 0 3.675.534 4.855 1.604 1.179 1.069 1.77 2.497 1.77 4.28a6.039 6.039 0 01-.995 3.347c-.663 1.024-1.762 2.359-3.298 4.005l-3.552 3.881.027.069h5.185l.165-1.975h3.044v5.046h-13.634zM224.232 234.323h2.249c.951 0 1.655-.25 2.112-.748.457-.499.686-1.19.686-2.078 0-.805-.229-1.449-.686-1.934-.458-.484-1.121-.727-1.989-.727-.75 0-1.381.219-1.893.659-.513.439-.769 1.015-.769 1.728h-3.881l-.027-.082c-.056-1.564.544-2.853 1.796-3.868 1.252-1.015 2.807-1.522 4.664-1.522 2.066 0 3.715.493 4.945 1.481 1.229.986 1.845 2.395 1.845 4.225 0 .869-.274 1.693-.823 2.476-.55.781-1.303 1.392-2.263 1.83 1.106.394 1.95.997 2.53 1.811.581.814.871 1.76.871 2.839 0 1.83-.666 3.268-1.995 4.314-1.331 1.046-3.035 1.57-5.11 1.57-1.857 0-3.45-.492-4.78-1.474-1.331-.984-1.973-2.372-1.927-4.164l.026-.082h3.882c0 .768.274 1.401.823 1.9.549.498 1.243.747 2.085.747.923 0 1.652-.256 2.188-.768.534-.511.803-1.207.803-2.084 0-1.051-.263-1.821-.789-2.311-.525-.489-1.301-.734-2.325-.734h-2.249v-3.004zM247.082 238.575h2.264v2.66h-2.264v1.962l2.125.411v2.399h-8.256v-2.399l2.139-.411v-1.962h-8.147l-.192-1.961 8.298-13.236h4.033v12.537zm-8.586 0h4.594v-7.202l-.082-.026-.329.575-4.183 6.653zM202.504 264.301l-.356-1.344h-5.376l-.562 4.609a5.015 5.015 0 011.343-.679 5.571 5.571 0 011.728-.281c1.922-.029 3.407.552 4.459 1.742 1.051 1.189 1.578 2.843 1.578 4.964 0 1.921-.579 3.517-1.735 4.789-1.158 1.27-2.825 1.905-5 1.905-1.83 0-3.398-.5-4.706-1.501s-1.938-2.38-1.893-4.136l.027-.068 3.84-.192c0 .886.251 1.58.755 2.078.503.499 1.161.748 1.976.748.933 0 1.624-.334 2.071-1.002.448-.667.672-1.53.672-2.591 0-1.153-.238-2.076-.714-2.771-.476-.694-1.184-1.042-2.125-1.042-.758 0-1.342.143-1.749.426a2.313 2.313 0 00-.871 1.151l-3.539-.232 1.152-11.124h11.493v4.553h-2.468zM215.301 259.459c.75 0 1.442.071 2.078.212.635.143 1.273.35 1.914.625l-.7 2.922a13.465 13.465 0 00-1.59-.459 7.97 7.97 0 00-1.674-.158c-1.188 0-2.142.435-2.86 1.303-.717.868-1.081 2.148-1.091 3.84l.042.069c.448-.467 1.017-.832 1.708-1.098.69-.265 1.46-.398 2.312-.398 1.783 0 3.183.634 4.197 1.9 1.015 1.267 1.523 2.883 1.523 4.849 0 2.011-.626 3.671-1.88 4.979-1.253 1.307-2.871 1.96-4.855 1.96-2.103 0-3.818-.714-5.144-2.146-1.326-1.43-1.989-3.413-1.989-5.946v-3.511c0-2.826.748-5.022 2.243-6.591 1.494-1.567 3.417-2.352 5.766-2.352zm-.918 9.89c-.741 0-1.372.119-1.893.357-.521.237-.923.563-1.208.974v1.331c0 1.583.287 2.798.857 3.648.573.85 1.333 1.276 2.285 1.276.822 0 1.483-.377 1.982-1.132.498-.755.748-1.666.748-2.736 0-1.107-.252-2.003-.754-2.688-.504-.688-1.177-1.03-2.017-1.03z"/></g></g><g><linearGradient id="m" x1="593.395" x2="695.901" y1="262.26" y2="262.26" gradientUnits="userSpaceOnUse"><stop offset="0" stop-color="#a1d8f6"/><stop offset="1" stop-color="#9e90f2"/></linearGradient><path fill="url(#m)" d="M603.573 290.612V278.98c0-19.241 15.655-34.896 34.896-34.896h12.358c19.242 0 34.896 15.654 34.896 34.896v11.632h10.178V278.98c0-24.853-20.22-45.074-45.073-45.074H638.47c-24.854 0-45.074 20.221-45.074 45.074v11.632h10.177z"/><linearGradient id="n" x1="676" x2="683" y1="324" y2="324" gradientUnits="userSpaceOnUse"><stop offset="0" stop-color="#5937e5"/><stop offset="1" stop-color="#c66fd7"/></linearGradient><path fill="url(#n)" d="M683 294.5h-1.112c-3.123 0-5.888 2.039-5.888 5.158v48.661c0 3.122 2.765 5.181 5.888 5.181H683v-59z"/><linearGradient id="o" x1="686" x2="718" y1="324" y2="324" gradientUnits="userSpaceOnUse"><stop offset="0" stop-color="#5937e5"/><stop offset="1" stop-color="#c66fd7"/></linearGradient><path fill="url(#o)" d="M713.425 313.5H713v-2.091c0-9.547-7.977-16.909-17.524-16.909H686v59h9.476c.919 0 2.149-.021 3.067-.021 8.08-1.465 14.457-8.281 14.457-16.91V333.5h.425c.209 0 .788.48.995.48 1.835-.521 3.58-2.456 3.58-5.523v-8.936c0-3.391-2.408-6.021-4.575-6.021z"/><g><linearGradient id="p" x1="991" x2="998" y1="335" y2="335" gradientTransform="rotate(180 802 329.5)" gradientUnits="userSpaceOnUse"><stop offset="0" stop-color="#5937e5"/><stop offset="1" stop-color="#c66fd7"/></linearGradient><path fill="url(#p)" d="M606 353.5h1.729c3.121 0 5.271-1.931 5.271-5.05v-48.661c0-3.122-2.149-5.289-5.271-5.289H606v59z"/><linearGradient id="q" x1="1000" x2="1031" y1="335" y2="335" gradientTransform="rotate(180 802 329.5)" gradientUnits="userSpaceOnUse"><stop offset="0" stop-color="#5937e5"/><stop offset="1" stop-color="#c66fd7"/></linearGradient><path fill="url(#q)" d="M576.19 334.5H577v2.199c0 9.547 7.593 16.801 17.14 16.801H604v-59h-9.861c-.918 0-1.958.074-2.876.074-8.08 1.467-14.264 8.338-14.264 16.967v2.959h-.81c-.207 0-.096-.426-.304-.426-1.833.52-2.887 2.51-2.887 5.576v8.937c.002 3.392 1.026 5.913 3.192 5.913z"/></g></g><path fill="#4D3782" d="M311.269 268.91a1.197 1.197 0 00-.737 1.102v13.073h-29.823c-.659 0-1.193.534-1.193 1.192v19.088c0 .658.534 1.191 1.193 1.191h29.823v13.124c0 .48.291.915.734 1.102.447.183.959.083 1.301-.259l23.877-23.798c.225-.225.351-.527.351-.846a1.2 1.2 0 00-.349-.844l-23.878-23.868a1.19 1.19 0 00-1.299-.257z"/><g><path fill="#4D3782" d="M511.71 286.516h17.49v-17.582h14.751v17.582h17.581v14.751h-17.581v17.489H529.2v-17.489h-17.49v-14.751z"/></g><g><path fill="#FCD2C5" d="M148.783 109.5c.567.214 1.539.817 2.142 1.651-1.215 1.784-3.596 4.478-4.77 5.81-1.246-.908-2.129-3.691-1.596-5.097.565-1.484 2.74-2.93 4.224-2.364z"/><path fill="#4D3782" d="M16.949 425.051c-1.472 1.026-4.958-1.148-6.818-3.604-1.865-2.453-3.267-4.767-3.412-6.675-.183-2.378-1.541-6.196-1.009-7.371.919-2.04 3.266-2.572 3.266-2.572 1.438-1.401 2.294-1.377 2.294-1.377l6.446 3.146s-.883 2.255-1.321 3.899c-.845 3.167 3.469 12.519.554 14.554z"/><path fill="#FCD2C5" d="M16.396 410.496s-2.521.209-4.951-.991c-1.374-.677-2.469-4.677-2.469-4.677 1.437-1.403 2.462-2.285 2.462-2.285l6.7 4.007s-1.013 1.493-1.742 3.946z"/><linearGradient id="r" x1="5464.875" x2="5464.875" y1="408.288" y2="223.134" gradientTransform="matrix(-1 0 0 1 5523.965 0)" gradientUnits="userSpaceOnUse"><stop offset="0" stop-color="#c66fd7"/><stop offset=".194" stop-color="#b767d9"/><stop offset=".571" stop-color="#8e52de"/><stop offset="1" stop-color="#5937e5"/></linearGradient><path fill="url(#r)" d="M108.675 228.462c-.307 4.237-14.266 56.973-28.868 107.764-6.988 24.306-62.548 71.967-62.548 71.967-.153.308-5.467.082-7.757-3.865 0 0 41.764-57.749 43.598-73.752 4.14-36.119 7.557-82.133 16.089-107.44 14.561 4.128 34.129 6.424 39.486 5.326z"/><path fill="#FCD2C5" d="M127.926 298.118c-.206 2.342-6.752 119.594-6.752 119.594-2.878 2.357-7.441 1.888-7.518 1.656 0 0-10.554-119.65-10.164-125.042 3.087 2.374 22.501 5.698 24.434 3.792z"/><path fill="#4D3782" d="M114.079 417.71l6.269-3.485s1.345 2.016 2.442 3.314c2.113 2.506 12.254 4.32 12.254 7.877 0 1.794-3.777 3.408-6.858 3.528a21.075 21.075 0 01-7.428-1.021c-1.813-.594-5.962-2.283-6.62-3.391-1.149-1.921-.242-4.15-.242-4.15-.326-1.983.183-2.672.183-2.672z"/><path fill="#FCD2C5" d="M119.145 421.033c-1.341.737-5.249-.651-5.249-.651-.328-1.982-.466-3.327-.466-3.327l7.122-3.204s.646 1.687 2.238 3.688c0 0-1.27 2.187-3.645 3.494z"/><linearGradient id="s" x1="5406.902" x2="5406.902" y1="417.188" y2="209.305" gradientTransform="matrix(-1 0 0 1 5523.965 0)" gradientUnits="userSpaceOnUse"><stop offset="0" stop-color="#c66fd7"/><stop offset=".194" stop-color="#b767d9"/><stop offset=".571" stop-color="#8e52de"/><stop offset="1" stop-color="#5937e5"/></linearGradient><path fill="url(#s)" d="M122.081 415.415c-.084.332-6.181 3.647-9.247.267 0 0-3.202-45.658-9.349-88.741-5.31-37.192-4.519-72.462-7.463-74.778v-39.417c15.103.991 37.021-1.245 42.028-3.439 1.123 8.036-15.969 206.108-15.969 206.108z"/><path fill="#F0F0F0" d="M140.038 247.733c-3.409 7.757-13.246 9.904-19.83 7.653l-.379-8.415-5.383 7.233c-31.419-6.076-49.906-20.447-49.906-20.447-.619-12.1 8.558-28.706 8.558-28.706l70.88 29.677c0 .001-2.721 10.232-3.94 13.005z"/><path fill="#FCD2C5" d="M137.171 130.671c2.074-1.623 6.94-12.322 7.698-16.503.75 1.068 9.147 10.27 12.244 10.815-.299.81-5.19 8.782-4.843 14.07-2.274 4.047-14.259.051-15.099-8.382z"/><linearGradient id="t" x1="5356.319" x2="5453.408" y1="184.784" y2="184.784" gradientTransform="matrix(-1 0 0 1 5523.965 0)" gradientUnits="userSpaceOnUse"><stop offset="0" stop-color="#a1d8f6"/><stop offset="1" stop-color="#9e90f2"/></linearGradient><path fill="url(#t)" d="M123.938 129.824c3.306.294 13.233.848 13.233.848s4.562 7.758 8.715 9.497c2.85 1.194 6.384-1.115 6.384-1.115s9.436 6.724 10.975 8.477c5.963 6.792 5.052 14.641 2.053 20.258-10.446 19.583-15.542 71.097-22.676 71.956-9.733 1.174-60.59-11.308-72.065-29.527 0 0 19.271-49.066 31.664-67.384 4.738-7 11.789-13.894 21.717-13.01z"/><path fill="#FCD2C5" d="M173.993 242.12c-.027.765-3.336 1.351-4.051 1.082-1.516-1.158-.833-2.042-2.413-2.922 1.482.566 3.17.843 4.764.931.883-.01 1.841-.272 1.7.909z"/><path fill="#FCD2C5" d="M171.039 242.701c1.809 1.354 5.499 4.831 5.758 5.074.71.75 2.732 2.396 3.097 3.123.235.463.345 1.986.063 2.561-.377.76-1.307.621-1.307.621-.285 1.064-2.775-.151-2.788.123-.049 1.129-1.605 1.404-4.432-1.387-.169-.167-8.464-5.649-10.97-7.62 1.086-1.639 5.792-5.652 5.886-5.612 1.578.882 3.175 1.957 4.693 3.117zM131.078 146.093c1.772 8.709.008 37.343 1.788 51.208 2.181 17.009-10.463 12.458-12.788 7.521-6.118-13.001-16.723-51.584-10.313-55.452 2.78-1.677 20.994-4.857 21.313-3.277z"/><path fill="#FCD2C5" d="M128.842 197.203c.616.294 1.141.649 1.518 1.013 6.911 6.681 28.19 35.846 36.499 41.66-2.417 2.25-4.275 4.283-5.372 6.073-13.473-9.835-44.254-38.112-41.997-44.383 2.061-5.748 6.629-5.662 9.352-4.363z"/><linearGradient id="u" x1="5359.236" x2="5418.671" y1="194.588" y2="194.588" gradientTransform="matrix(-1 0 0 1 5523.965 0)" gradientUnits="userSpaceOnUse"><stop offset="0" stop-color="#a1d8f6"/><stop offset="1" stop-color="#9e90f2"/></linearGradient><path fill="url(#u)" d="M130.711 144.156c.673.334 1.137.921 1.266 1.612.836 4.445.282 43.409 1.036 50.059.129 1.149.196 2.227.2 3.274 2.604 3.084 5.963 7.357 9.506 11.866 7.736 9.847 17.365 22.101 22.009 25.454l-7.646 8.993c-11.426-8.599-36.063-31.478-40.428-41.558-4.674-10.397-16.969-51.524-8.401-56.527 2.872-1.673 19.506-4.633 22.458-3.173z"/><path fill="#4D3782" d="M159.57 170.022c-6.577 18.077-19.949 23.998-22.67 21.332-2.988-2.93 10.799-18.307 11.235-36.19.3-12.444 4.094-15.235 6.367-19.918 2.339-4.817 3.088-11.38 2.783-15.761.136-.114 9.771-6.015 11.275-1.249.307 5.409-.755 11.502-3.941 17.214-4.652 8.35-4.118 15.813-3.403 19.172 1.185 5.587-.521 12.306-1.646 15.4z"/><path fill="#FCD2C5" d="M161.71 102.835c5.551 1.457 9.193 5.119 8.671 10.65-.187 1.979-6.543 18.279-16.229 17.817-4.094-.196-9.127-9-7.961-13.456l1.606-6.132c1.549-5.903 7.95-10.437 13.913-8.879z"/><path fill="#4D3782" d="M137.35 147.646c-12.176 17.004-4.489 41.198-10.625 41.799-5.586.546-19.462-14.524-15.461-36.092.685-3.694 3.169-11.181 8.765-15.549 3.367-2.626 9.414-9.211 9.075-20.326-.339-11.116 6.029-19.759 13.58-24.493 7.547-4.735 15.306-2.587 19.008.443 4.629 3.795 4.439 4.825 4.439 4.825s2.879.18 5.353 2.661c5.345 5.365.597 19.64-5.754 22.608 7.957-14.485-1.027-19.82-1.027-19.82s-6.982-1.318-11.467 1.61c-4.081 2.665-9.943 11.343-10.291 19.195-.262 5.996 2.877 11.311-5.595 23.139z"/></g></svg>