<svg xmlns="http://www.w3.org/2000/svg" width="800" height="582.616"><path fill="#231F20" d="M592.203 523.082l-64.394-254.235c-.013-.047-.029-.087-.04-.134l-4.729-18.703c-1.313-5.181-6.758-9.418-12.104-9.418H289.063c-5.345 0-10.791 4.237-12.103 9.418l-4.756 18.794c-.003.017-.01.03-.014.043l-64.393 254.236c-3.936 15.54 5.961 28.252 21.99 28.252h340.425c16.03 0 25.927-12.712 21.991-28.253z"/><path fill="#414042" d="M592.203 523.082l-1.811-7.146c.144 1.015-.71 5.696-28.734 5.696H398.287l-159.943.001c-28.024 0-28.878-4.683-28.734-5.697l-1.811 7.146c-3.936 15.54 5.961 28.252 21.99 28.252h340.426c16.027.001 25.924-12.711 21.988-28.252z"/><path fill="#58595B" d="M426.85 252.017c0 1.571-1.312 2.856-2.915 2.856h-40.439c-1.603 0-2.915-1.286-2.915-2.856 0-1.571 1.312-2.857 2.915-2.857h40.439c1.604 0 2.915 1.285 2.915 2.857z"/><path fill="#231F20" d="M466.833 535.685a2.923 2.923 0 01-2.915 2.915h-238.08a2.924 2.924 0 01-2.915-2.915v-.854a2.923 2.923 0 012.915-2.915h238.081a2.923 2.923 0 012.915 2.915v.854zM571.94 535.685a2.923 2.923 0 01-2.915 2.915h-86.708a2.923 2.923 0 01-2.915-2.915v-.854a2.923 2.923 0 012.915-2.915h86.708a2.923 2.923 0 012.915 2.915v.854z"/><path fill="#FFF" d="M570.798 501.069H230.347l53.124-235.341h234.203z"/><ellipse cx="400.287" cy="347.695" fill="none" stroke="#8BC3CD" stroke-miterlimit="10" stroke-width="1.053" rx="85.397" ry="42.558"/><path fill="#D6E03D" d="M400.569 303.997c-47.323 0-85.683 19.437-85.683 43.414 0 23.975 38.36 43.414 85.683 43.414 47.324 0 85.684-19.439 85.684-43.414 0-23.977-38.36-43.414-85.684-43.414zm0 78.996c-38.792 0-70.233-15.929-70.233-35.582 0-19.657 31.442-35.585 70.233-35.585 38.789 0 70.234 15.928 70.234 35.585 0 19.653-31.445 35.582-70.234 35.582z"/><path fill="#7AD3C6" d="M548.6 402.757H252.699l-22.352 98.312h340.451z"/><radialGradient id="a" cx="440.764" cy="650.236" r="81.247" gradientTransform="matrix(1.1672 0 0 .1167 -120.69 275.487)" gradientUnits="userSpaceOnUse"><stop offset="0" stop-color="#231f20"/><stop offset=".009" stop-color="#282425"/><stop offset=".113" stop-color="#5a5757"/><stop offset=".221" stop-color="#868484"/><stop offset=".332" stop-color="#abaaaa"/><stop offset=".447" stop-color="#cac9c9"/><stop offset=".567" stop-color="#e1e1e1"/><stop offset=".693" stop-color="#f2f2f2"/><stop offset=".83" stop-color="#fcfcfc"/><stop offset="1" stop-color="#fff"/></radialGradient><ellipse cx="393.771" cy="351.369" fill="url(#a)" rx="94.819" ry="9.483"/><path fill="#917325" d="M448.037 265.701a2.471 2.471 0 01-1.803-4.157c7.344-7.881 24.406-30.867 15.244-42.389-1.399-1.76-2.963-2.503-4.964-2.421-10.194.574-26.153 22.586-31.444 31.025a2.468 2.468 0 01-3.405.782 2.476 2.476 0 01-.78-3.406c2.083-3.328 20.782-32.516 35.355-33.33 3.478-.217 6.72 1.278 9.105 4.278 13.678 17.199-14.305 47.543-15.505 48.831a2.455 2.455 0 01-1.803.787z"/><path fill="#5E9732" d="M442.37 243.849l19.754 12.347s-27.779 71.608-25.31 96.302h-14.815s6.171-87.042 20.371-108.649z"/><path fill="#57892B" d="M410.886 352.498h11.112s7.408-80.252 20.371-108.649l-22.841-29.632c.001 0-19.754 72.845-8.642 138.281z"/><linearGradient id="b" x1="397.305" x2="344.522" y1="283.357" y2="283.357" gradientUnits="userSpaceOnUse"><stop offset="0" stop-color="#abd038"/><stop offset="1" stop-color="#6cb33f"/></linearGradient><path fill="url(#b)" d="M419.529 214.217s-16.668 92.6-8.643 138.281h-53.708s-12.346-75.313-25.928-96.919c.001 0 56.178-35.188 88.279-41.362z"/><g fill="#FFF"><circle cx="383.95" cy="239.702" r="4.63"/><circle cx="356.088" cy="252.893" r="4.63"/></g><path fill="#917325" d="M354.956 253.264a2.466 2.466 0 01-2.137-1.23c-1.968-3.4-19.031-33.577-12.939-46.839 1.495-3.251 4.272-5.343 8.04-6.048 21.591-4.046 35.347 34.87 35.92 36.529a2.471 2.471 0 01-4.669 1.62c-3.535-10.186-15.867-36.022-30.345-33.297-2.209.415-3.627 1.447-4.457 3.256-4.264 9.284 7.741 33.688 12.722 42.302a2.468 2.468 0 01-2.135 3.707z"/><path fill="#FFF" d="M409.821 224.371s-14.094 82.692-5.692 117.908c-.001-.001-13.948-55.458 5.692-117.908z"/><linearGradient id="c" x1="390.838" x2="343.223" y1="300.747" y2="300.747" gradientUnits="userSpaceOnUse"><stop offset="0" stop-color="#7ac143"/><stop offset="1" stop-color="#6cb33f"/></linearGradient><path fill="url(#c)" d="M342.425 248.995c-6.051 3.555-11.174 6.583-11.174 6.583 13.582 21.606 25.928 96.919 25.928 96.919h53.708l-45.108-7.981c-20.359-48.778-23.349-95.506-23.354-95.521z" opacity=".5"/><g><path fill="#ED1849" d="M350.452 102.862h-68.746a5.771 5.771 0 01-5.299-3.459l-25.052-56.747h-19.559a5.793 5.793 0 01-5.798-5.798 5.794 5.794 0 015.798-5.798h23.342a5.772 5.772 0 015.299 3.46l25.052 56.746h60.229l7.453-36.49h-64.42a5.796 5.796 0 01-5.798-5.799 5.797 5.797 0 015.798-5.799h71.521a5.82 5.82 0 014.497 2.13 5.862 5.862 0 011.187 4.83l-9.818 48.087a5.81 5.81 0 01-5.686 4.637z"/><path fill="#ED1849" d="M355.988 75.771h-49.83a5.794 5.794 0 01-5.798-5.798 5.795 5.795 0 015.798-5.799h49.83a5.796 5.796 0 015.801 5.799 5.796 5.796 0 01-5.801 5.798z"/><g><path fill="#58595B" d="M305.082 120.779c0 6.403-5.188 11.597-11.597 11.597s-11.597-5.194-11.597-11.597c0-6.405 5.188-11.597 11.597-11.597s11.597 5.192 11.597 11.597zM346.646 120.779c0 6.403-5.188 11.597-11.597 11.597-6.412 0-11.597-5.194-11.597-11.597 0-6.405 5.185-11.597 11.597-11.597 6.409 0 11.597 5.192 11.597 11.597z"/></g></g><g><path fill="#6D6E71" d="M190.052 450.183c2.985 3.514 2.55 8.836-.969 11.819l-3.366 2.86c-3.518 2.985-8.84 2.549-11.822-.967l-24.401-28.621c-1.793-2.117 2.082-7.806 3.415-8.938l.705-.596c3.516-2.982 10.069-6.504 12.037-4.182l24.401 28.625z"/><path fill="#414042" d="M165.824 421.767c1.899 2.235-.181 7.117-4.641 10.902-4.461 3.789-9.617 5.045-11.517 2.813-1.897-2.24.183-7.122 4.646-10.908 4.461-3.782 9.62-5.043 11.512-2.807z"/><path fill="#65BBE9" d="M153.83 415.247c18.585-19.49 19.844-50.27 2.021-71.266-19.054-22.455-52.72-25.214-75.169-6.154-22.455 19.059-25.207 52.718-6.148 75.174 17.818 20.992 48.395 24.758 70.65 9.583l5.686 6.7c1.865 2.2 5.189 2.472 7.389.604l.653-.553c2.197-1.863 2.471-5.187.604-7.389l-5.686-6.699z"/><linearGradient id="d" x1="125.031" x2="214.838" y1="339.261" y2="339.261" gradientTransform="rotate(4.675 -337.837 -311.764)" gradientUnits="userSpaceOnUse"><stop offset="0" stop-color="#54bceb"/><stop offset="1" stop-color="#0076c0"/></linearGradient><path fill="url(#d)" d="M149.426 349.432c16.054 18.908 13.728 47.244-5.175 63.287-18.906 16.055-47.248 13.735-63.294-5.172-16.048-18.907-13.729-47.249 5.176-63.297 18.906-16.049 47.252-13.725 63.293 5.182z"/><path fill="#F1F1F2" d="M147.167 351.348c14.99 17.664 12.818 44.127-4.832 59.116-17.66 14.991-44.128 12.823-59.115-4.836-14.992-17.659-12.827-44.129 4.83-59.115 17.656-14.99 44.13-12.824 59.117 4.835z"/><path fill="#FFF" d="M151.194 417.813l1.769-1.718 5.521 6.469s1.532 1.576-.071 3.102l-7.219-7.853z"/></g><g><path fill="#FFF" d="M117.675 141.429h81.426v112.493h-81.426z"/><path fill="#00BCD2" d="M117.675 141.429h81.426v17.005h-81.426z"/><g fill="#BCBEC0"><path d="M132.716 168.245h56.246v3.725h-56.246zM132.716 182.832h56.246v3.725h-56.246zM132.716 198.041h56.246v3.725h-56.246zM132.716 214.491h56.246v27.003h-56.246z"/></g><g><path fill="#00B259" d="M153.845 252.056l16.116-17.213 15.643 22.467s16.688-41.67 54.388-63.939l2.429 1.566s-33.136 24.733-49.199 86.37l-3.495 1.226-35.882-30.477z"/><path fill="#00853F" d="M153.845 252.056l35.882 30.477-9.429.044-27.451-22.891zM185.604 257.31s16.688-41.67 54.388-63.939c-32.368 17.202-56.251 56.319-57.463 59.524l3.075 4.415z"/></g></g><g><g fill="#9B5BA5"><path d="M458.703 28.022h81.86v75.51h-81.86z"/><path d="M433.912 92.792l65.723 56.994 65.724-56.994z"/></g><path fill="#FFF" d="M497.79 104.421v-4.856c-2.789-.048-5.675-.914-7.357-2.116l1.154-3.222c1.731 1.154 4.23 2.068 6.924 2.068 3.414 0 5.722-1.972 5.722-4.712 0-2.645-1.874-4.28-5.434-5.723-4.904-1.923-7.934-4.135-7.934-8.318 0-3.991 2.837-7.021 7.261-7.742v-4.857h2.981v4.665c2.885.096 4.856.866 6.252 1.683l-1.203 3.174c-1.01-.577-2.981-1.636-6.06-1.636-3.701 0-5.096 2.212-5.096 4.136 0 2.5 1.778 3.751 5.962 5.481 4.954 2.02 7.454 4.52 7.454 8.8 0 3.799-2.645 7.358-7.598 8.175v5.001h-3.028z"/><g fill="#FFF"><path d="M499.636 58.692a26.043 26.043 0 0114.835 4.619l4.009-4.01c-5.277-3.895-11.779-6.226-18.844-6.226-8.456 0-16.118 3.323-21.815 8.705l3.974 3.973c4.674-4.368 10.937-7.061 17.841-7.061zM499.636 111.04c-6.731 0-12.851-2.563-17.487-6.738l-3.972 3.971c5.659 5.19 13.177 8.384 21.459 8.384 6.888 0 13.249-2.214 18.456-5.938l-4.025-4.025a26.04 26.04 0 01-14.431 4.346zM473.461 84.865a26.024 26.024 0 014.348-14.43l-4.026-4.025c-3.723 5.208-5.938 11.566-5.938 18.455 0 7.063 2.332 13.566 6.227 18.845l4.01-4.01a26.045 26.045 0 01-4.621-14.835zM525.81 84.865c0 6.905-2.692 13.167-7.061 17.842l3.971 3.972c5.384-5.694 8.706-13.358 8.706-21.814 0-8.282-3.192-15.801-8.382-21.458l-3.973 3.97c4.176 4.64 6.739 10.756 6.739 17.488z"/></g></g><g><path fill="#009DDC" d="M608.849 192.791c0 17.394 14.102 31.493 31.496 31.493 17.39 0 31.491-14.099 31.491-31.493s-14.102-31.496-31.491-31.496c-17.394-.001-31.496 14.101-31.496 31.496z"/><g fill="#72CDF4"><path d="M617.909 202.356c.076.12.059.645.294.639.234-.009.536.063.547-.083.015-.146-.004-.424.053-.582.057-.154.071-.301.242-.576.172-.278.611-.619.611-.619s.285-.398.347-.129c.063.27.296.45.284.596-.014.143.096.212.311.117.215-.1.459-.063.339-.366-.117-.304-.071-.313-.204-.662-.128-.347-.201.143-.128-.347.074-.493.235-.812.235-.812s-.376-.386-.031-.326.501.306.501.306.132.161.267.129c.132-.032.435-.152.384-.375-.055-.224-.173-.527-.173-.527s-.522-.209-.181-.762c.345-.553.537-.742.629-.952.09-.211.197-.759.197-.759l.575-.562s.236-.008.232.181c-.001.192-.216.29.041.37.258.08.279-.02.705-.023.424-.006.915.066.947.201.03.135.733 1.104.733 1.104s.677.266.854.416c.178.146.903.209.955.436.054.224 1.26.931 1.371 1.192.107.255.179.759.253 1.075.075.312.104.639.192.805.086.169.696.544.696.544s.186.381.24.607c.052.224.13.157.361.338.232.181.441.464.441.464s.634.278.516-.218c-.114-.49-.114-.49-.169-.716-.051-.223.539-.931.474-1.198-.064-.272-.055-.839-.109-1.063-.052-.227-.025-.708.047-1.006.07-.3.198-.756.19-.991-.008-.235-.074-.315-.058-.837.018-.527.155-.748.069-.917-.089-.168-.229-.562-.347-.862-.119-.304.086-.636.086-.636s.298.261.376.384c.076.124.467.172.467.172l.538-.126.161-.513-.252-.272-.152-.438.363-.272s.75-.226.717-.361c-.031-.135.132-.646.132-.646s-.128-.346.164-.51c.292-.166.919-.312 1.108-.31.192 0 1.242-.151 1.242-.151l.641-.293 1.262-.682s.257-.295.263-.673c.006-.381.691-.685.691-.685s.077.123.411.138c.336.017.535.063.85-.201.32-.266.609-.427.636-.719.028-.29.074-.49.122-.88.053-.393.157-.748.157-.748l.563-.415s.292-.164.436.037c.143.203-.244-.034.143.203.387.241.527-.171.576.241.052.416.037.751-.069 1.109-.105.356-.151.557-.208.711-.059.157-.026.289-.018.524a.57.57 0 01-.175.467c-.115.12-.407.287-.374.421.031.135.283.404-.011.567-.289.164-1.031.436-1.031.436s-.102.163-.433-.04c-.336-.207-.092.02-.336-.207-.24-.224-.508-.352-.508-.352s-.312-.115-.402.097c-.093.212-.029.475-.029.475s.132.161.019.284c-.113.12-.218.287-.419.43-.204.144-.293.353-.293.353s-.35.129-.333.41c.021.281-.194.375.084.547s.556.155.911.447c.353.295.664.602.894.785.232.18.521.207.881.313.354.106.602.14 1.058.077.461-.061.775-.321.953-.178.178.149.187.384.673.456.492.075 1.61 0 1.61 0s.266.126.422.184c.154.06.401.095.715.02.313-.074.819-.335.819-.335s.167.1.434.037c.269-.063.517-.215.444-.53-.074-.313-.058-.84-.166-1.098-.109-.255-.121-1.722-.121-1.722s-.08-.124.083-.633c.166-.513.191-.802.191-.802s.415-1.046.217-1.281a2.752 2.752 0 01-.37-.573c-.09-.168-.118-.496.027-.67.149-.177.571-.799.571-.799l-.245-1.031.063-.723c.013-.146-.036-.562-.036-.562s.811.074 1.105.567c0 0 .641.914.437 1.247-.207.332-.278.633-.115 1.02.163.387.364.341.24.725-.119.384-.098-.12-.119.384-.023.501-.012.854.137 1.172.144.321.358.627.104 1.04-.259.416-.114-.184-.259.416-.14.602-.025.791-.045 1.006-.021.218.138-.318-.021.218-.154.536-.43.883-.113 1.023.316.138.8.378.61.777-.188.398-.276.633-.509.547-.234-.086-.412-.541-.412-.541-.39.446-.611.713-.549.979.064.272-.116-.186.064.272.178.453.04.768-.146.883s-.118.1-.643.295a6.014 6.014 0 01-.991.304c-.336.08-.591.212-.843.341-.252.134-.556.347-.789.261-.233-.089-.397-.476-.586-.078-.189.401-.571-.006-.189.401.378.407.647.344.765.53.112.186 2.121 1.768 2.554 2.092.43.323.395.473.829.516.435.037 1.06-.038 1.06-.038s.031-.155.598.141c.568.292 1.087.381 1.351.602.267.224.731.395.731.395s.515.375.962.768c.447.39.567.292.61.777.044.487-.261.702-.212.902.049.204.028.418-.027.788l-.054.37-.312.783s-.058.366.274.856c.327.49.159.673.474.811.317.138.332.207.736.109.403-.095.258-.413.741-.175.482.24-.017-.066.482.24.498.31.542.794.542.794s-.438.25-.376.516c.065.27-.32.146.065.27.383.12-.099-.118.383.12.483.241.547.51.678.765.13.252.95.413.95.413s.684.037.802-.094c.12-.135 2.172-2.029 2.931-4.834.757-2.806 1.364-4.439 1.286-5.061-.077-.622-.067-1.189-.226-1.863-.161-.67.071-1.791-.009-2.126-.08-.338.834-2.184.401-3.717-.437-1.53-.616-1.699-.689-2.604-.071-.905.26-1.906.347-2.141.088-.235.595-.779.868-1.129.272-.347 1.271-1.929 1.18-2.264-.095-.341-.843-3.671-2.588-6.407-1.745-2.74-3.533-3.221-4.447-3.786s-1.16-1.003-1.43-.94c-.27.063-.186.115-.744.462-.558.344-.657.226-1.059.321-.404.095-.713.593-1.018.808-.304.215-.664-.41-.304.215.361.625-.221.264.361.625.582.358.8.378.674 1.046-.127.668-.328.717-.398 1.018-.072.301.06.553-.078.868-.139.318-.24.484-.526.765-.291.281-.459.464-.712.31-.247-.152-.406-.825-.406-.825s-.246-.438-.535-.158c-.29.281-.577.562-.683 1.015-.106.45-.109.736-.533 1.049l-.424.312s-.576.562-1.115.688c-.535.126-1.061.607-1.498.567-.434-.037-.716-.327-1.078-.665-.364-.341-.877-1-.925-1.204-.046-.201-.51-.659.246-.768a11.727 11.727 0 001.358-.25c.338-.08 1.393-.115 1.084-.826-.311-.705-.182-1.662-.413-1.745-.235-.089-.603-.144-.854-.015-.254.132-.237.201-.812.476-.572.281-.538.129-1.075.255-.539.129-.823.126-1.209.287-.389.163-.491.33-.827.41-.334.077-.688.375-.953.155-.269-.221-.702-.261-.26-.791.443-.53 1.179-.705 1.188-1.275.008-.57.015-1.14.267-1.269.255-.132-.412-.542.692-.378 1.104.166 1.504.355 1.769.579.266.218.536.155.831.51.296.358.567.292.769.246.2-.046.071-.301.489-.329.418-.029.741-.175.803.094.065.267.16.673.358.909.197.238.243.725.599.427.352-.295.381.121.352-.295-.026-.421-.208-.593-.354-.912-.147-.321-.108-.756-.356-.911-.251-.152-.415-.255-.532-.442-.114-.183-.275-.573-.09-.688.185-.114.488-.327.439-.53-.046-.201-.127-.539-.127-.539l-.363-.338s-.009-.542.447-.416c.456.131.422.186.6.332.176.146.289.215.35.677.06.458.103.636.012.848-.094.212-.207.332-.109.547.099.212.353.484.608.375.262-.108.271-.255.223-.667-.051-.413.108-.737.056-.96-.053-.223-.03-.323-.128-.538-.097-.215-.157-.671-.157-.671s.018-.524.315-.267c.299.264-.173.278.299.264.469-.02.503-.075.727-.126.228-.052.105-.355.45-.106.342.249.576.244.842.367.267.125-.063-.267.714.208.776.482 1.119.542 1.119.542l.472-.207s.249-.152.132-.456c-.12-.307.04-.625-.372-.765-.411-.141-.676-.456-1.106-.685-.433-.229-.527-.633-.799-.57-.268.065-.74.272-1.143.366-.405.095-1.479-.452-1.701-.779-.218-.326-.16-.481-.652-.366-.491.117-.173.277-.717.171-.546-.109-1.158-.297-1.158-.297s-.47.017-.648.06c-.18.042-.523-.209-.669-.218a.978.978 0 00-.626.146c-.249.152-.711.593-1.026.668-.314.075-.838-.131-.927.077-.093.209-.018.335-.376.421-.358.083-.536.126-.678-.078-.141-.203-.026-.512-.318-.539-.289-.026-.498-.12-.67-.035-.17.089-.317.459-.585.33-.267-.126-.329-.396-.464-.364-.135.031-.591.095-.814.146-.227.054-.596.095-.627-.04-.032-.135-.187-.384.197-.568.381-.186.72-.357.72-.357l-.018-.471-.401-.094s-.467-.174-.646-.132c-.18.043-.581-.051-.581-.051s-.116-.493.198-.568c.312-.075.974-.089 1.275-.017.299.068.699.166.922.304.22.135.568.006.869.267.297.261.631.467.631.467s.376.003.496.118c.123.112.321.35.51.353.189 0 .717.02.654-.25-.064-.27-.152-.438-.363-.531-.21-.091-.476-.41-.476-.41.384-.183.489-.539.489-.539s-.101-.212-.444-.275c-.348-.06-.749.227-1.432.149-.68-.075-1.284-.026-1.705-.209-.424-.186-.914-.257-1.16-.295-.244-.037-.935-.155-1.125-.157-.19-.003-.571-.012-.996.186-.427.198-.616.195-.811.378-.192.189-.418.432-.575.564-.156.131-.397.521-.366.656.031.132.007.232.32.158.314-.075.688-.304.822-.335.134-.032.272-.252.333.017.064.27.03.324.118.493.087.169.284.404.193.616-.092.212-.152.367-.529.361-.38-.006-.537-.063-.792-.143-.255-.08-.244-.227-.656-.178-.415.055-1.474-.217-1.653-.175-.178.043-.805.189-.975.278-.168.085-1.235.576-1.691.447-.455-.129.176-.656-.531-.441-.706.212-.721.358-.822.524-.104.166-.152.559-.339.364-.189-.192-.582.137-.761-.009-.177-.149-.226-.562-.226-.562s.386-.567-.109-.45c-.492.117-.673.35-.765.561-.092.212-.093.401-.34.364-.244-.038-.45.106-.511-.164-.064-.27.077-.871.077-.871s.151-.364-.217-.516c-.365-.149-.453-.318-.643-.321-.191-.002-.59-.094-.663.204-.071.301-.062.536-.323.645-.255.109-.524.172-.659.204-.135.031-1.005-.046-1.005-.046l-.531-.252-1.03-.077s-3.038 2.453-4.17 3.802c0 0-.953 2.272-1.173 2.751a49.27 49.27 0 01-.538 1.121l-.767.559s-.504.688-.709 1.209c-.207.524-.597 2.083-.714 2.585-.117.501-.072.487-.091 1.014-.019.524-.032.86-.047 1.006a2.159 2.159 0 01-.106.544c-.083.255-.562 1.031-.623 1.375-.059.347-.262 1.292.022.897.284-.401.412-.667.572-.988.159-.321.072-.49.255-.723.181-.235-.267-.129.181-.235.449-.103.645-.481.696-.066.048.413.098.829.152 1.052.052.224.172.524-.098.78-.272.255-.41.476-.545.507s.058.648.043.983c-.015.335-.406 1.278-.406 1.278s-.489 1.536-.385 1.983c.108.45.418.756.313 1.114-.106.353-.124.688-.124.688s.39 1.046.677 1.45c.284.407-.144.602.613.992.753.39.937.155 1.391.287.458.129.675.456.729.679.052.224.275 1.167.17 1.519-.104.358-.425 1-.425 1s-.506.263-.421.622.2 1.04.283 1.398c.086.361-.006.381.261.507.269.127.516.164.592.291zm19.27-20.177c-.09-.169.395-.519.453-.676.059-.158.206-.333.206-.333s.282-.398.446-.719c.159-.324-.144-.393-.275-.553-.13-.154-.255-.077-.41-.141-.157-.054-.303-.068-.431-.418-.13-.344-.084-.355-.013-.656.068-.301.458-.06.458-.06l.467.172s.588.287.745.344c.152.058.588.29.953.436.365.151 0 0 .153.249.154.247.006.424-.04.625-.049.197-.488.541-.488.541s.084.358.285.597c.197.235.209.091.43.226.223.14.132.35.292.831.162.484-.083.447-.3.734-.215.29-.804.808-.804.808-.163.51-.306.307-.728.124-.423-.184 0 0-.009-.235-.007-.235-.186-.192-.375-.384-.187-.192-.006-.424-.006-.424s.118-.313.132-.455c.012-.147-.178-.338-.546-.301-.369.043-.279.02-.512-.161-.228-.183.002-.002-.083-.171zm-3.121-1.582c.117-.312 0 0 .049-.201.046-.2.36-.275.36-.275l.167.104c.165.103.4.094.637.085.234-.009.051.224.06.459.008.235-.049.475-.11.736-.076.318-.494.118-.494.118l-.284-.407c-.144-.203-.189-.003-.401-.094-.212-.092-.099-.212.016-.525zm-11.197 4.07c-.131-.35 0 0 .158-.324.16-.321 0 0 .05-.198.045-.201.524.017.524.017l-.055.579s-.159.324-.551.272c-.388-.049.001 0-.126-.346zM615.659 204.448a1.771 1.771 0 01-.157-.673c.001-.189.233-.009.233-.009s.372.576 1.121 1.536c.747.957.341.438.572.619.232.183.272.361.517.587.244.229.344.252.609.375.268.129.254.892.308 1.304.06.47-.719.358-1.142.172-.423-.184-.299-.258-.361-.53-.063-.267-.162-.481-.205-.662-.04-.177-.418-.372-.65-.553-.233-.18-.106-.45-.125-.728-.018-.281-.196-.427-.25-.651-.052-.223-.372-.572-.47-.787z"/><path d="M619.959 205.419c.013-.146.003-.192.161-.513.162-.323.097-.401.343-.553.246-.154.235.181.246-.154.018-.336-.043-.794-.043-.794s.038-.436.25-.341c.212.089.577.241.519.587-.061.341-.141.41-.278.633-.138.221-.16.321-.197.565-.036.246-.061.346-.021.713.04.37.125.728.125.728s-.092.212-.239.387c-.146.178-.33.321-.425.009-.068-.224-.148-.628-.18-.763-.032-.134-.275-.358-.261-.504zM620.714 208.411c.126-.27.262-.298.232-.625-.03-.324-.595.094-.03-.324.563-.415.279-.017.563-.415.286-.401.409-.476.466-.633.061-.155.272-.444.272-.444l.183-.229s.262-.297.316-.074c.051.224.143.201.025.516-.116.309-.061.344-.311.688-.25.341-.097-.215-.25.341-.153.559-.153.559-.144.793.008.232.095.401.082.547-.015.143.115.493-.012.759-.126.267-.418.619-.418.619l-.438.152c-.218-.327-.235-.797-.458-.934-.222-.138-.491-.075-.284-.404.206-.333.08-.067.206-.333zM629.041 203.602c.037-.246 0 0 .095-.401.097-.401.224-.055.404-.098.177-.042.217.327.217.327s.145.204.388.43.06.421-.178.848c-.161.284-.649.057-.86-.224l-.261-.318.159-.321c.159-.323-.001.001.036-.243zM649.915 209.216c.226-.054.344.061.344.061l.344.252s.299.261.453.318c.156.057.245.037.513-.026.271-.066.338-.178.662-.207.325-.028 0 0 .292.026.288.026.342.252.342.252l.085.358-.384.375s-.007.378.184.573c.186.188 0 0 .189 0 .188 0 .354.295.354.295l.039.37c.04.367-.464.441-.469.82 0 0 .03.324-.019.524-.046.2-.438.151-1.295.117-.862-.031 0 0-.142-.201-.146-.204-.211-.281-.364-.53-.152-.25-.251-.461-.415-.754-.163-.292-.174-.341-.263-.507-.086-.169-.585-.479-.633-.892-.052-.413-.01-.232-.109-.447-.097-.215-.072-.313.065-.728.141-.407 0 .003.227-.049z"/></g><path fill="#13B5EA" d="M701.668 191.908h-18.381c-.474-23.287-19.547-42.087-42.941-42.087h-.019v-18.007a1.5 1.5 0 10-3 0v18.125c-21.998 1.536-39.477 19.694-39.93 41.969h-18.086a1.5 1.5 0 100 3h18.117c1.059 21.708 18.307 39.224 39.898 40.731v18.117a1.5 1.5 0 103 0v-18h.019c22.98 0 41.803-18.137 42.91-40.849h18.412a1.5 1.5 0 00.001-2.999zm-61.322 40.849c-22.04 0-39.971-17.928-39.971-39.965 0-22.04 17.931-39.971 39.971-39.971 22.036 0 39.964 17.931 39.964 39.971 0 22.037-17.928 39.965-39.964 39.965z"/></g><g><g fill="#414042"><path d="M612.473 392.384h84.596v51.302h-84.596zM623.736 461.212c0 5.943 4.818 10.763 10.762 10.763s10.764-4.819 10.764-10.763-4.82-10.763-10.764-10.763-10.762 4.819-10.762 10.763zm5.009 0a5.753 5.753 0 015.755-5.753 5.754 5.754 0 11-5.755 5.753z"/><path d="M608.969 439.899v16.557h12.386c1.947-5.382 7.088-9.235 13.143-9.235 6.054 0 11.197 3.854 13.145 9.235h47.365c1.949-5.382 7.089-9.235 13.146-9.235 6.054 0 11.194 3.854 13.144 9.235h17.57s4.756-3.002 4.756-7.507v-17.52s-2.001-4.006-3.503-4.257c-1.502-.25-8.511-22.023-8.511-22.023s-.248-2.254-4.255-2.505c-4.004-.25-26.781 0-26.781 0v37.255h-91.605zm95.108-33.25h23.528l7.759 20.523h-31.287v-20.523z"/><path d="M697.39 461.212c0 5.943 4.817 10.763 10.763 10.763 5.943 0 10.762-4.819 10.762-10.763s-4.818-10.762-10.762-10.762c-5.945 0-10.763 4.818-10.763 10.762zm5.008 0a5.754 5.754 0 015.755-5.753 5.755 5.755 0 11-5.755 5.753z"/></g><path fill="#EE4043" d="M711.155 321.284c-8.991-24.478-32.968-23.48-32.968-23.48s-23.977-.998-32.967 23.48c-8.994 24.477 10.272 38.563 15.767 43.81 5.496 5.244 17.2 17.633 17.2 17.633s11.704-12.389 17.198-17.633c5.494-5.247 24.761-19.333 15.77-43.81zm-32.968 35.89c-13.063 0-23.651-10.59-23.651-23.65 0-13.063 10.589-23.653 23.651-23.653 13.061 0 23.649 10.591 23.649 23.653 0 13.06-10.588 23.65-23.649 23.65z"/><path fill="#F8971D" d="M692.693 333.523c0 8.011-6.492 14.506-14.507 14.506s-14.506-6.495-14.506-14.506c0-8.017 6.491-14.511 14.506-14.511s14.507 6.496 14.507 14.511z"/></g><g><g fill="none" stroke="#939598" stroke-linejoin="round" stroke-width="2"><path d="M178.102 381.757h3"/><path stroke-dasharray="5.7629,5.7629" d="M186.864 381.757h100.851"/><path d="M290.596 381.757h3l1.962-2.27"/><path stroke-dasharray="6.3871,6.3871" d="M299.734 374.654l31.32-36.246"/><path d="M333.142 335.991l1.961-2.269"/></g></g><g><g fill="none" stroke="#939598" stroke-linejoin="round" stroke-width="2"><path d="M626.68 375.682l-1.805-2.396"/><path stroke-dasharray="5.8378,5.8378" d="M621.36 368.625l-19.328-25.639"/><path d="M600.274 340.655l-1.806-2.395h-3"/><path stroke-dasharray="6.2121,6.2121" d="M589.256 338.26h-133.56"/><path d="M452.589 338.26h-3"/></g></g><g><g fill="none" stroke="#939598" stroke-linejoin="round" stroke-width="2"><path d="M656.578 129.77l-1.724-2.456"/><path stroke-dasharray="6.1644,6.1644" d="M651.311 122.269l-40.735-58.018"/><path d="M608.804 61.728l-1.723-2.455h-3"/><path stroke-dasharray="6.3079,6.3079" d="M597.773 59.273H563.08"/><path d="M559.925 59.273h-3"/></g></g><g><g fill="none" stroke="#939598" stroke-linejoin="round" stroke-width="2"><path d="M154.922 120.292l1.724-2.455"/><path stroke-dasharray="5.5661,5.5661" d="M159.844 113.282l30.385-43.276"/><path d="M191.829 67.728l1.723-2.455h3"/><path stroke-dasharray="6.4052,6.4052" d="M202.958 65.273h22.417"/><path d="M228.578 65.273h3"/></g></g><g><g fill="none" stroke="#939598" stroke-linejoin="round" stroke-width="2"><path d="M382.542 65.273h3"/><path stroke-dasharray="6.2829,6.2829" d="M391.825 65.273h47.122"/><path d="M442.088 65.273h3"/></g></g><path fill="none" stroke="#939598" stroke-dasharray="6" stroke-linejoin="round" stroke-miterlimit="10" stroke-width="2" d="M104.605 216.766l-20.999 22.498v80.997M691.075 221.265l21 22.499v56.997"/></svg>